<svg xmlns="http://www.w3.org/2000/svg" width="599" height="463" fill="none" viewBox="0 0 599 463">
  <path fill="#E0E0E0" d="M169.715 302.861a3.495 3.495 0 0 0 1.514-1.186 4.129 4.129 0 0 0 .74-2.382 6.54 6.54 0 0 0-.244-1.627c-.126-.578-.26-1.205-.395-1.862-1.136-5.303-2.751-12.928-4.753-22.318l-1.556-7.4c-.269-1.306-.55-2.613-.841-3.92a12.686 12.686 0 0 0-.48-1.96 3.307 3.307 0 0 0-1.11-1.431 2.476 2.476 0 0 0-1.615-.461c-.606.113-1.204.27-1.792.47l-3.727 1.137-7.798 2.353-34.7 10.448c-.694.23-1.291.75-1.676 1.461a3.878 3.878 0 0 0-.41 2.391c.37 1.774.732 3.528 1.085 5.283.732 3.499 1.447 6.959 2.154 10.35 1.404 6.792 2.767 13.339 4.054 19.602.16.785.328 1.559.48 2.323.109.716.402 1.376.841 1.892.44.498 1.007.815 1.615.902a4.216 4.216 0 0 0 1.834-.333l7.361-2.186 13.207-3.921 19.179-5.665 5.207-1.49 1.363-.372.463-.108a2.735 2.735 0 0 1-.454.177l-1.338.441-5.182 1.627-19.087 5.88-13.19 4.009-7.352 2.225a4.753 4.753 0 0 1-2.036.353c-.727-.099-1.406-.47-1.935-1.059a4.621 4.621 0 0 1-1.026-2.205c-.16-.774-.32-1.549-.488-2.323-1.304-6.243-2.667-12.742-4.088-19.603l-2.162-10.35c-.365-1.764-.729-3.541-1.094-5.332a4.674 4.674 0 0 1 .493-2.893c.466-.86 1.19-1.488 2.031-1.762l34.717-10.399 7.798-2.323 3.735-1.118a13.38 13.38 0 0 1 1.884-.49 2.996 2.996 0 0 1 1.918.569 3.926 3.926 0 0 1 1.295 1.676c.217.668.386 1.357.505 2.058.281 1.346.561 2.653.841 3.921.53 2.577 1.043 5.057 1.523 7.419 1.918 9.419 3.474 17.054 4.559 22.367l.379 1.872c.14.55.214 1.121.219 1.695-.025.913-.323 1.786-.842 2.47-.315.425-.709.76-1.152.98-.151.07-.31.113-.471.128Z"/>
  <path fill="#E0E0E0" d="m142.476 283.229 7.437 2.617-5.577 6.469-5.578 6.468-1.859-9.085-1.867-9.086 7.444 2.617Z"/>
  <path fill="#EBEBEB" d="m575.913 295.01-74.417 15.18 10.415 69.319 74.418-15.179-10.416-69.32Z"/>
  <path fill="#F5F5F5" d="m573.911 299.916-69.189 14.114 9.104 60.591 69.189-14.113-9.104-60.592Z"/>
  <path fill="#E0E0E0" d="m513.822 374.646 18.506-42.597 18.507 20.514 8.261-14.672 23.916 22.641-69.19 14.114Zm39.133-51.555a7.416 7.416 0 0 1-.393 3.708c-.443 1.164-1.172 2.149-2.095 2.83-.923.681-1.998 1.029-3.09.998-1.093-.03-2.153-.438-3.046-1.17-.894-.732-1.582-1.756-1.976-2.943a7.446 7.446 0 0 1-.24-3.726c.238-1.243.786-2.375 1.576-3.255.79-.879 1.786-1.466 2.862-1.686a4.773 4.773 0 0 1 2.159.057c.71.185 1.381.53 1.976 1.018a6.145 6.145 0 0 1 1.49 1.821c.389.715.653 1.513.777 2.348Z"/>
  <path fill="#EBEBEB" d="m313.731 326.36-13.038 44.827 48.122 19 13.037-44.827-48.121-19Z"/>
  <path fill="#F5F5F5" d="m314.563 329.844-11.396 39.182 44.736 17.663 11.396-39.182-44.736-17.663Z"/>
  <path fill="#E0E0E0" d="m303.182 369.049 22.704-18.181 5.249 19.053 8.934-5.547 7.849 22.347-44.736-17.672Zm37.367-15.721c-.237.811-.675 1.522-1.258 2.043a3.423 3.423 0 0 1-2.019.885 3.302 3.302 0 0 1-2.102-.57c-.637-.428-1.15-1.067-1.476-1.835a4.964 4.964 0 0 1-.352-2.48 4.692 4.692 0 0 1 .888-2.291c.485-.644 1.122-1.107 1.832-1.33a3.214 3.214 0 0 1 2.156.079c.934.371 1.704 1.157 2.141 2.188a5.003 5.003 0 0 1 .19 3.311Zm175.087-251.236c13.22-15.403 13.22-40.375 0-55.778-13.219-15.402-34.652-15.402-47.872 0-13.219 15.403-13.219 40.375 0 55.778 13.22 15.402 34.653 15.402 47.872 0Z"/>
  <path fill="#FAFAFA" d="M507.075 75.47c-.394.08-.794.113-1.194.098l-3.289.079c-2.793 0-6.68.068-11.071.078h-.252v-2.862c0-5.714 0-10.88.059-14.623 0-1.804.05-3.304.067-4.44a11.2 11.2 0 0 1 .093-1.618c.062.536.09 1.077.084 1.617 0 1.137.042 2.637.067 4.44 0 3.745.067 8.91.067 14.624v2.558l-.21-.255c4.391 0 8.277 0 11.07.089l3.289.078c.41.007.817.053 1.22.137Zm-15.453-34.226c.215 1.085.289 2.202.219 3.313a12.81 12.81 0 0 1-.219 3.313 12.898 12.898 0 0 1-.219-3.313 12.988 12.988 0 0 1 .219-3.313Zm15.428 5.322c-.5.933-1.118 1.772-1.834 2.49a9.456 9.456 0 0 1-2.17 2.127 10.371 10.371 0 0 1 1.834-2.49 9.513 9.513 0 0 1 2.17-2.127Zm9.018 11.477c-.715.71-1.5 1.319-2.339 1.814-.76.64-1.585 1.17-2.456 1.578a7.939 7.939 0 0 1 2.229-1.96 7.173 7.173 0 0 1 2.566-1.432Zm5.282 17.035c-2.577.34-5.178.34-7.756 0 2.578-.34 5.179-.34 7.756 0Zm-53.77-.588a26.46 26.46 0 0 1-7.327 0 26.46 26.46 0 0 1 7.327 0Zm3.803 12.673a17.518 17.518 0 0 1-2.768 2.94 15.898 15.898 0 0 1-3.045 2.53 17.957 17.957 0 0 1 2.767-2.941 16.401 16.401 0 0 1 3.046-2.529Zm9.379 9.811a31.22 31.22 0 0 1-1.884 3.803 31.435 31.435 0 0 1-1.994 3.725 15.118 15.118 0 0 1 1.624-3.989 14.178 14.178 0 0 1 2.254-3.539Zm10.861 12.644a23.78 23.78 0 0 1-.22-4.519 23.94 23.94 0 0 1 .22-4.518c.215 1.492.289 3.008.219 4.518a23.862 23.862 0 0 1-.219 4.519Zm16.714-6.018a11.383 11.383 0 0 1-3.197-2.548 13.09 13.09 0 0 1-2.607-3.343c1.009.918 1.975 1.9 2.893 2.941a38.622 38.622 0 0 1 2.911 2.95Zm7.84-9.84a14.598 14.598 0 0 1-2.566-2.608 15.253 15.253 0 0 1-2.254-2.94 14.54 14.54 0 0 1 2.524 2.626c.869.856 1.64 1.838 2.296 2.921Zm-45.148-31.433a10.712 10.712 0 0 1-2.271-2.274 11.758 11.758 0 0 1-1.952-2.647 11.195 11.195 0 0 1 2.263 2.284 11.93 11.93 0 0 1 1.96 2.637Zm9.674-11.88a10.6 10.6 0 0 1-2.221-2.225 11.082 11.082 0 0 1-1.918-2.587 10.867 10.867 0 0 1 2.221 2.225 10.912 10.912 0 0 1 1.918 2.587Z"/>
  <path fill="#E0E0E0" d="M598.835 121.82h-59.146v99.886h59.146V121.82Z"/>
  <path fill="#F5F5F5" d="M595.874 121.82h-59.146v99.886h59.146V121.82Z"/>
  <path fill="#fff" d="M588.521 132.631h-44.449v78.254h44.449v-78.254Z"/>
  <path fill="#E0E0E0" d="M588.522 210.885v-5.783c0-3.753 0-9.213-.043-16.123 0-13.8 0-33.324-.067-56.348l.143.177h-44.483l.16-.186v78.253l-.127-.147 32.354.079h12.13-12.013l-32.437.078h-.126v-78.587h44.761v.167c0 23.062-.059 42.636-.076 56.465 0 6.861 0 12.34-.042 16.074v5.352c0 .255-.134.529-.134.529Z"/>
  <path fill="#E0E0E0" d="M596.034 121.82a11.456 11.456 0 0 1-1.052 1.784c-.69 1.069-1.682 2.519-2.776 4.097a83.845 83.845 0 0 1-2.919 3.921 11.914 11.914 0 0 1-1.304 1.548 12.99 12.99 0 0 1 1.127-1.725c.791-1.117 1.767-2.499 2.852-4.018l2.843-4.029c.37-.566.781-1.094 1.229-1.578Z"/>
  <path fill="#fff" d="M588.749 210.63a62.852 62.852 0 0 0 7.755 11.301l-7.755-11.301Z"/>
  <path fill="#E0E0E0" d="M596.504 221.931c-.493-.42-.947-.9-1.354-1.431a46.373 46.373 0 0 1-2.927-3.842 49.84 49.84 0 0 1-2.574-4.175 10.69 10.69 0 0 1-.9-1.853c.4.536.766 1.106 1.093 1.706a89.531 89.531 0 0 0 2.633 4.087 96.349 96.349 0 0 0 2.843 3.92 14.07 14.07 0 0 1 1.186 1.588Z"/>
  <path fill="#fff" d="m536.694 221.627 7.748-11.134-7.748 11.134Z"/>
  <path fill="#E0E0E0" d="M544.459 210.493a68.26 68.26 0 0 1-3.744 5.685 66.52 66.52 0 0 1-4.004 5.449 68.573 68.573 0 0 1 3.752-5.684 65.821 65.821 0 0 1 3.996-5.45Zm-7.765-88.673a57.638 57.638 0 0 1 3.769 5.234 64.747 64.747 0 0 1 3.508 5.469 58.268 58.268 0 0 1-3.76-5.233 65.265 65.265 0 0 1-3.517-5.47Zm37.981 26.699h-14.881v49.242h14.881v-49.242Zm-439.559 14.379v71.432h-88.05l-3.172-70.932 91.222-.5Z"/>
  <path fill="#fff" d="M43.895 163.408v70.775h88.049v-70.775h-88.05Z"/>
  <path fill="#E0E0E0" d="M132.365 234.663H43.482v-71.746h88.883v71.746Zm-88.05-.98h87.209v-69.795H44.315v69.795Z"/>
  <path fill="#fff" d="M122.405 172.19H53.434v53.191h68.971V172.19Z"/>
  <path fill="#E0E0E0" d="M122.405 172.19h-5.106l-14.217.058-49.631.118.202-.235v53.192l-.22-.255 68.98.059-.168.196c0-16.182.067-29.404.093-38.696 0-4.626 0-8.233.042-10.703v-3.793 3.754c0 2.46 0 6.057.042 10.654 0 9.272.05 22.543.092 38.823v.206h-.176l-68.98.049h-.219v-53.604h.202l49.783.108 14.166.069h5.115Z"/>
  <path fill="#E0E0E0" d="M43.895 163.202a6.884 6.884 0 0 1 1.514 1.147c.9.754 2.128 1.832 3.457 3.058 1.33 1.225 2.524 2.411 3.306 3.283a7.6 7.6 0 0 1 1.262 1.5c-.084.107-2.196-1.961-4.845-4.382a51.72 51.72 0 0 1-4.694-4.606Zm88.049.196a45.79 45.79 0 0 1-4.635 4.597 42.046 42.046 0 0 1-4.904 4.195 46.05 46.05 0 0 1 4.618-4.587 43.994 43.994 0 0 1 4.921-4.205Z"/>
  <path fill="#fff" d="m131.877 234.183-9.817-9.262 9.817 9.262Z"/>
  <path fill="#E0E0E0" d="M122.06 224.921a46.334 46.334 0 0 1 5.047 4.43 50.294 50.294 0 0 1 4.77 4.832 46.862 46.862 0 0 1-5.047-4.43 50.41 50.41 0 0 1-4.77-4.832Zm-78.165 9.252a46.37 46.37 0 0 1 4.584-4.548 43.841 43.841 0 0 1 4.854-4.146 44.208 44.208 0 0 1-4.543 4.548 40.682 40.682 0 0 1-4.895 4.146Zm23.545-45.409v17.809h43.398v-17.809H67.44Z"/>
  <path fill="#263238" d="M595.066 452.625c0 .147-125.198.255-279.594.255-154.397 0-279.628-.059-279.628-.255s125.164-.255 279.628-.255c154.463 0 279.594.118 279.594.255Z"/>
  <path fill="#EBEBEB" d="m100.686 69.531-8.061 69.744 74.873 11.749 8.062-69.744-74.874-11.749Z"/>
  <path fill="#263238" d="m175.561 81.282-.37-.049-1.06-.147-4.071-.617-15.336-2.343-54.073-8.37.219-.196c-2.39 20.76-5.14 44.567-8.042 69.746l-.185-.294 74.868 11.762-.202.186 5.939-50.575c.723-6.087 1.295-10.86 1.682-14.124.191-1.627.343-2.871.455-3.734.101-.843.168-1.284.168-1.284s0 .422-.126 1.255l-.396 3.754c-.37 3.264-.9 8.027-1.581 14.104-1.388 12.202-3.365 29.668-5.771 50.731v.206h-.177L92.634 139.59h-.218v-.254l8.084-69.737v-.225h.193l54.174 8.615 15.302 2.382 4.021.657 1.026.176.345.078Z"/>
  <path fill="#FF725E" d="m102.764 74.334-7.046 60.962 69.613 10.923 7.046-60.962-69.613-10.923Z"/>
  <path fill="#FF725E" d="m95.713 135.288 28.694-34.08 12.324 26.082 11.676-11.076 16.917 30.002-69.61-10.928Zm50.658-35.315c-.146 1.262-.61 2.445-1.333 3.4-.723.955-1.673 1.639-2.729 1.965a4.787 4.787 0 0 1-3.206-.133c-1.034-.413-1.939-1.173-2.602-2.185-.664-1.013-1.054-2.231-1.123-3.502a7.303 7.303 0 0 1 .736-3.638c.549-1.101 1.365-1.988 2.346-2.549a4.847 4.847 0 0 1 3.167-.6c.72.11 1.414.386 2.043.81.629.425 1.179.99 1.62 1.663.441.673.763 1.44.949 2.259a7.48 7.48 0 0 1 .132 2.51Z"/>
  <path fill="#000" d="m95.713 135.288 28.694-34.08 12.324 26.082 11.676-11.076 16.917 30.002-69.61-10.928Zm50.658-35.315c-.146 1.262-.61 2.445-1.333 3.4-.723.955-1.673 1.639-2.729 1.965a4.787 4.787 0 0 1-3.206-.133c-1.034-.413-1.939-1.173-2.602-2.185-.664-1.013-1.054-2.231-1.123-3.502a7.303 7.303 0 0 1 .736-3.638c.549-1.101 1.365-1.988 2.346-2.549a4.847 4.847 0 0 1 3.167-.6c.72.11 1.414.386 2.043.81.629.425 1.179.99 1.62 1.663.441.673.763 1.44.949 2.259a7.48 7.48 0 0 1 .132 2.51Z" opacity=".2"/>
  <path fill="#FAFAFA" d="M474.268 69.08h-309.07v235.78h309.07V69.08Z"/>
  <path fill="#263238" d="M475.227 85.663c0 .138-69.198.255-154.539.255-85.342 0-154.54-.117-154.54-.255 0-.137 69.182-.254 154.54-.254 85.358 0 154.539.117 154.539.254ZM176.15 77.97c0 .409-.104.808-.299 1.148-.195.34-.472.606-.796.762a1.545 1.545 0 0 1-1.026.118 1.715 1.715 0 0 1-.909-.566 2.2 2.2 0 0 1-.486-1.06 2.397 2.397 0 0 1 .101-1.194c.135-.378.362-.7.654-.928.292-.227.635-.349.986-.349a1.55 1.55 0 0 1 .681.155c.216.104.412.256.577.448.165.192.296.421.384.672.089.252.134.522.133.793Zm6.393 0c0 .409-.104.808-.299 1.148-.195.34-.472.606-.796.762a1.545 1.545 0 0 1-1.026.118 1.719 1.719 0 0 1-.909-.566 2.189 2.189 0 0 1-.485-1.06 2.374 2.374 0 0 1 .101-1.194c.134-.378.361-.7.653-.928.292-.227.635-.349.986-.349a1.55 1.55 0 0 1 .681.155c.216.104.412.256.577.448.165.192.296.421.384.672.089.252.134.522.133.793Zm6.41 0c0 .409-.104.81-.299 1.15-.196.34-.473.605-.798.761a1.543 1.543 0 0 1-1.027.116 1.719 1.719 0 0 1-.909-.569 2.197 2.197 0 0 1-.483-1.061 2.377 2.377 0 0 1 .104-1.196c.136-.378.365-.7.658-.926a1.6 1.6 0 0 1 .988-.344c.233 0 .463.054.678.158.215.104.41.257.574.449.164.192.294.42.382.67.089.252.134.52.132.791Z"/>
  <path fill="#EBEBEB" d="M373.861 98.16h-105.48v6.783h105.48V98.16Z"/>
  <path fill="#263238" d="M457.915 287.982c0-1.538-.059-65.786-.16-171.072l.16.186-277.113.069.227-.255v171.072l-.21-.245 277.138.245-277.138.236h-.202V116.636h.244l277.112.059h.169v.196c-.16 105.305-.219 169.553-.227 171.091Z"/>
  <path fill="#263238" d="M214.896 287.629c-.126 0-.126-38.293 0-85.526.127-47.232.312-85.536.429-85.536.118 0 .127 38.294 0 85.536-.126 47.242-.311 85.526-.429 85.526Zm41.111.138c-.118 0-.118-38.294 0-85.527.117-47.232.311-85.536.429-85.536.117 0 .126 38.294 0 85.536-.127 47.243-.303 85.527-.429 85.527Zm41.118.147c-.126 0-.126-38.304 0-85.536.126-47.233.311-85.537.429-85.537s.126 38.294 0 85.537c-.126 47.242-.311 85.536-.429 85.536Zm41.11.137c-.118 0-.118-38.304 0-85.536.118-47.233.311-85.536.429-85.536s.126 38.293 0 85.546c-.126 47.252-.303 85.526-.429 85.526Zm41.152.108c-.126 0-.126-38.294 0-85.527.127-47.232.312-85.536.429-85.536.118 0 .127 38.284 0 85.536-.126 47.253-.345 85.527-.429 85.527Zm41.077.166c-.118 0-.118-38.293 0-85.526.118-47.232.311-85.536.429-85.536s.126 38.284 0 85.536-.286 85.526-.429 85.526Z"/>
  <path fill="#263238" d="M457.915 158.272c0 .137-61.964.255-138.397.255-76.432 0-138.413-.118-138.413-.255 0-.138 61.964-.255 138.413-.255 76.45 0 138.397.108 138.397.255Zm0 43.831c0 .137-61.964.255-138.397.255-76.432 0-138.413-.118-138.413-.255s61.964-.255 138.413-.255c76.45 0 138.397.108 138.397.255Zm0 43.822c0 .147-61.964.255-138.397.255-76.432 0-138.413-.108-138.413-.255 0-.147 61.964-.255 138.413-.255 76.45 0 138.397.118 138.397.255Z"/>
  <path fill="#EBEBEB" d="M183.561 249.826s-3.28 24.817.135 40.283l32.807-1.392s-6.729-24.689-2.464-37.029l-30.478-1.862Z"/>
  <path fill="#FF725E" d="M183.696 248.953s.219 30.492 1.548 39.794l32.807-1.813s-2.885-29.973-1.775-37.981h-32.58Z"/>
  <path fill="#fff" d="M211.346 261.695c0 .147-4.921.608-11.003 1.029-6.082.422-11.011.657-11.02.52-.008-.138 4.913-.598 10.995-1.029 6.082-.432 11.02-.628 11.028-.52Zm.009 6.489c0 .147-4.921.607-11.003 1.029-6.082.421-11.012.657-11.02.519-.008-.137 4.913-.598 10.995-1.029 6.082-.431 11.02-.656 11.028-.519Zm-5.577 6.341a6.895 6.895 0 0 1-1.834.314c-1.127.127-2.7.264-4.433.382-1.733.118-3.298.206-4.434.235a6.482 6.482 0 0 1-1.85-.049 6.868 6.868 0 0 1 1.825-.313c1.136-.118 2.701-.255 4.433-.383a99.94 99.94 0 0 1 4.442-.235 7.128 7.128 0 0 1 1.851.049Z"/>
  <path fill="#EBEBEB" d="M258.656 121.203s-2.691 25.827.724 41.293l32.244-1.96s-6.73-25.18-2.524-37.52l-30.444-1.813Z"/>
  <path fill="#FF725E" d="M258.791 120.292s.219 30.492 1.548 39.793l32.807-1.813s-2.885-29.973-1.775-37.98h-32.58Z"/>
  <path fill="#fff" d="M286.442 133.102c0 .137-4.921.598-10.995.98-6.074.382-11.02.657-11.028.51-.009-.147 4.912-.598 10.994-.98 6.082-.383 11.02-.657 11.029-.51Zm.008 6.459c0 .137-4.912.598-10.994.98s-11.02.667-11.029.52c-.008-.147 4.913-.598 11.003-1.03 6.091-.431 11.012-.617 11.02-.47Zm-5.577 6.341a7.12 7.12 0 0 1-1.826.304c-1.135.128-2.7.265-4.433.383-1.733.117-3.306.205-4.441.245a6.383 6.383 0 0 1-1.851-.059 7.187 7.187 0 0 1 1.834-.304c1.127-.127 2.7-.265 4.433-.382a141.74 141.74 0 0 1 4.433-.245 6.313 6.313 0 0 1 1.851.058Z"/>
  <path fill="#EBEBEB" d="M301.861 248.12s-2.65 28.238.757 43.704l32.387-1.656s-6.94-27.855-2.675-40.186l-30.469-1.862Z"/>
  <path fill="#FF725E" d="M301.996 247.209s.218 30.492 1.547 39.793l32.808-1.813s-2.886-29.973-1.775-37.98h-32.58Z"/>
  <path fill="#fff" d="M329.647 260.019c0 .137-4.922.598-10.995.98-6.074.383-11.02.667-11.028.52-.009-.147 4.912-.598 10.994-1.029 6.082-.432 11.02-.618 11.029-.471Zm.008 6.459c0 .138-4.921.598-10.995.98-6.073.383-11.02.657-11.028.52-.009-.137 4.913-.598 10.994-1.029 6.082-.431 11.02-.618 11.029-.471Zm-5.577 6.342c-.6.181-1.215.283-1.834.304a106.69 106.69 0 0 1-4.425.382c-1.733.117-3.306.206-4.442.245a6.787 6.787 0 0 1-1.85-.059 7.112 7.112 0 0 1 1.825-.304 126.69 126.69 0 0 1 8.875-.627 6.281 6.281 0 0 1 1.851.059Z"/>
  <path fill="#EBEBEB" d="M425.553 162.192s-3.365 24.249.042 39.705l32.883-.823s-6.729-24.689-2.464-37.029l-30.461-1.853Z"/>
  <path fill="#FF725E" d="M425.654 161.291s.219 30.482 1.548 39.783l32.807-1.803s-2.885-29.973-1.775-37.98h-32.58Z"/>
  <path fill="#fff" d="M453.33 174.091c0 .147-4.913.598-10.995.98-6.081.382-11.019.657-11.028.52-.008-.138 4.913-.608 11.003-.981 6.091-.372 11.012-.656 11.02-.519Zm.008 6.459c0 .137-4.912.598-10.994.98-6.082.383-11.02.657-11.029.52-.008-.137 4.922-.608 11.004-.98 6.082-.373 11.011-.657 11.019-.52Zm-5.577 6.342a6.743 6.743 0 0 1-1.825.313c-1.136.118-2.701.255-4.433.382a98.638 98.638 0 0 1-4.442.236c-.615.08-1.236.08-1.851 0a6.855 6.855 0 0 1 1.834-.314c1.127-.127 2.7-.265 4.433-.382 1.733-.118 3.298-.206 4.442-.235a6.46 6.46 0 0 1 1.842 0Z"/>
  <path fill="#EBEBEB" d="M342.239 206.622s-3.364 24.248.043 39.715l32.883-.824s-6.73-24.689-2.465-37.039l-30.461-1.852Z"/>
  <path fill="#FF725E" d="M342.374 205.72s.219 30.492 1.548 39.793l32.807-1.813s-2.885-29.972-1.775-37.98h-32.58Z"/>
  <path fill="#fff" d="M370.016 218.569c0 .147-4.913.608-10.995 1.029-6.081.422-11.019.657-11.028.52-.008-.137 4.913-.598 11.003-1.029 6.091-.432 11.012-.706 11.02-.52Zm.009 6.411c0 .147-4.913.607-10.995 1.029-6.082.421-11.02.656-11.028.519-.009-.137 4.921-.598 11.003-1.029 6.082-.431 11.011-.657 11.02-.519Zm-5.578 6.331a6.823 6.823 0 0 1-1.825.314c-1.136.127-2.7.264-4.433.382-1.733.118-3.306.206-4.442.235a6.6 6.6 0 0 1-1.851-.049 6.86 6.86 0 0 1 1.834-.313c1.128-.118 2.701-.265 4.434-.383a117.52 117.52 0 0 1 4.433-.235 7.033 7.033 0 0 1 1.85.049Z"/>
  <path fill="#EBEBEB" d="m418.083 171.278-17.421 10.448-8.429-1.392 4.509-9.311 18.38-7.547 2.961 7.802Z"/>
  <path fill="#455A64" d="m391.509 178.413 4.274-8.007 18.876-7.988 3.794 8.693-18.304 8.518-8.64-1.216Z"/>
  <path fill="#fff" d="M412.539 167.603c-.583.393-1.197.722-1.833.98a178.26 178.26 0 0 1-4.501 2.058l-4.534 1.96c-1.153.49-1.918.784-1.868.755-.143-.206 2.726-1.637 6.242-3.205 3.517-1.568 6.444-2.725 6.494-2.548Zm-2.952 3.92c-2.603 1.77-5.449 3.004-8.412 3.646a34.794 34.794 0 0 1 4.206-1.882 34.89 34.89 0 0 1 4.206-1.764Z"/>
  <path fill="#E0E0E0" d="M183.671 160.8s-3.029 34.148 1.001 41.303l30.435-2.156-1.615-37.931-29.821-1.216Z"/>
  <path fill="#455A64" d="M183.671 160.8s.21 29.708 1.514 38.765l31.966-1.765s-2.81-29.198-1.725-37h-31.755Z"/>
  <path fill="#fff" d="M199.418 165.005h.463a6.519 6.519 0 0 1 3.365.774 7.116 7.116 0 0 1 2.212 2.039 9.75 9.75 0 0 1 1.531 3.587 10.092 10.092 0 0 1-.337 4.607c-.238.798-.54 1.569-.9 2.303a25.44 25.44 0 0 0-1.026 2.323 22.767 22.767 0 0 0-1.287 5.283v.128h-.101l-3.154.058-3.315.059h-.118v-.137a12.179 12.179 0 0 0-1.531-5.087c-.387-.764-.841-1.48-1.194-2.205a20.767 20.767 0 0 1-1.127-2.137 8.204 8.204 0 0 1-.497-4.538c.186-1.32.604-2.582 1.228-3.705.541-.907 1.255-1.656 2.087-2.185a7.065 7.065 0 0 1 1.96-.883 7.57 7.57 0 0 1 1.304-.254h.462-.454a7.112 7.112 0 0 0-1.287.294 7.19 7.19 0 0 0-1.926.911 6.555 6.555 0 0 0-2.011 2.156 10.544 10.544 0 0 0-1.178 3.647 8.004 8.004 0 0 0 .505 4.39c.336.729.71 1.432 1.119 2.108.387.715.841 1.431 1.203 2.205.896 1.559 1.44 3.355 1.581 5.224l-.117-.137 3.306-.069 3.154-.049-.109.118c.217-1.85.659-3.656 1.312-5.361a26.64 26.64 0 0 1 1.043-2.343c.355-.718.654-1.473.892-2.254a9.816 9.816 0 0 0 .353-4.479 9.638 9.638 0 0 0-1.472-3.519 7.045 7.045 0 0 0-2.145-2.019 6.615 6.615 0 0 0-1.994-.735 6.888 6.888 0 0 0-1.312-.128h-.463l-.025.01Z"/>
  <path fill="#fff" d="M201.05 185.696v-.461l-.177-1.333c-.143-1.156-.353-2.832-.496-4.901 0-.529-.067-1.068-.084-1.636-.017-.569-.042-1.167 0-1.784a5.544 5.544 0 0 1 .353-1.862c.244-.632.678-1.138 1.22-1.422a1.42 1.42 0 0 1 .919-.108 1.543 1.543 0 0 1 1.201 1.471 2.04 2.04 0 0 1-.328 1.068 2.247 2.247 0 0 1-.774.725 3.318 3.318 0 0 1-.951.363 9.134 9.134 0 0 1-2.01.274 9.99 9.99 0 0 1-2.036-.107 3.43 3.43 0 0 1-.959-.334 2.55 2.55 0 0 1-.841-.666c-.229-.27-.39-.61-.463-.98a1.974 1.974 0 0 1 .11-1.108c.138-.338.377-.606.673-.754a.96.96 0 0 1 .908 0c.273.149.508.379.681.666.165.299.28.631.337.98.101.627.155 1.264.16 1.902.059 1.225.109 2.372.16 3.41.084 2.088.159 3.774.21 4.901 0 .578 0 1.029.05 1.343v.47a2.282 2.282 0 0 1 0-.117v-.353c0-.314-.042-.765-.075-1.343-.059-1.166-.143-2.852-.244-4.901-.051-1.048-.101-2.185-.16-3.41a14.414 14.414 0 0 0-.168-1.882 2.928 2.928 0 0 0-.328-.892 1.639 1.639 0 0 0-.64-.637.921.921 0 0 0-.841-.049 1.305 1.305 0 0 0-.614.705 1.792 1.792 0 0 0-.109 1.03c.064.369.219.71.445.98.449.541 1.042.887 1.683.98a9.808 9.808 0 0 0 2.01.108 9.693 9.693 0 0 0 2.002-.265c.32-.079.63-.201.926-.363.289-.157.543-.392.74-.686.185-.282.291-.625.303-.98a1.48 1.48 0 0 0-.081-.534 1.464 1.464 0 0 0-1.038-.913 1.327 1.327 0 0 0-.866.104c-.52.273-.936.757-1.17 1.363a5.582 5.582 0 0 0-.361 1.823v1.774c0 .568 0 1.117.075 1.637.135 2.078.337 3.754.463 4.9.067.579.126.98.16 1.333l.042.353c-.004.04-.009.079-.017.118Zm-4.206.196s.042.461.084 1.235.093 1.96.143 3.225v-.079l2.154 2.941-.11-.049 2.524-.167-.109.059 1.236-1.765.623-.872v.108c0-1.696-.059-3.303-.093-4.773l.135.147-4.644.059h-1.346a3.261 3.261 0 0 1-.504 0c.148-.017.297-.017.445 0l1.313-.079 4.727-.215h.135v.156c0 1.471.076 3.078.118 4.774v.068h-.042c-.202.284-.413.578-.615.882-.429.598-.841 1.186-1.244 1.755l-.043.059h-.067l-2.523.137h-.068v-.059l-2.111-2.94v-3.352c-.118-.863-.118-1.275-.118-1.255Z"/>
  <path fill="#fff" d="M203.271 190.087a1.21 1.21 0 0 1-.236-.118 6.667 6.667 0 0 0-.647-.294 5.617 5.617 0 0 0-2.246-.402 5.575 5.575 0 0 0-2.221.559c-.216.1-.427.214-.631.343l-.227.127c.064-.065.134-.121.21-.166.196-.145.402-.273.614-.383a5.28 5.28 0 0 1 2.255-.597 5.296 5.296 0 0 1 2.91.774.978.978 0 0 1 .219.157Zm0-1.157-.236-.117a8.715 8.715 0 0 0-.647-.304 5.593 5.593 0 0 0-2.246-.392 5.557 5.557 0 0 0-2.221.558 4.348 4.348 0 0 0-.631.344 1.183 1.183 0 0 1-.227.127s.067-.069.21-.167c.194-.148.4-.276.614-.382a5.191 5.191 0 0 1 4.526-.157c.22.092.434.203.639.333.079.042.152.094.219.157Z"/>
  <path fill="#fff" d="M203.212 187.823a1.175 1.175 0 0 1-.235-.118 6.82 6.82 0 0 0-.648-.294 5.614 5.614 0 0 0-2.246-.402 5.563 5.563 0 0 0-2.221.559c-.216.1-.427.214-.631.343l-.227.137s.067-.078.21-.176a5.191 5.191 0 0 1 5.14-.539c.219.095.432.206.639.333a.978.978 0 0 1 .219.157Z"/>
  <path fill="#FF725E" d="M264.074 242.328c.042 0 0 .46-.412.98a5.272 5.272 0 0 1-1.843 1.48 4.797 4.797 0 0 1-3.062.657c0-.157 1.355-.353 2.886-1.128a6.277 6.277 0 0 0 1.791-1.264c.404-.412.573-.755.64-.725Z"/>
  <path fill="#263238" d="M475.227 304.821c0-1.656-.068-91.917-.177-235.78l.177.205H166.182l.218-.254v235.78l-.202-.235 309.071.235-309.071.235h-.201V68.786h309.457v.206a474809.99 474809.99 0 0 0-.227 235.829Z"/>
  <path fill="#FF725E" d="m448.401 269.458-6.074-12.075-5.762 12.075H354.79v49.81h127.335v-49.81h-33.724Z"/>
  <path fill="#FAFAFA" d="M377.705 294.794c1.127-.565 2.087-1.503 2.76-2.699a8.174 8.174 0 0 0 1.025-4.024c.021-1.82-.581-3.574-1.671-4.878-1.09-1.303-2.58-2.048-4.141-2.072-1.562-.023-3.068.677-4.186 1.948-1.119 1.27-1.758 3.006-1.779 4.825a8.239 8.239 0 0 0 .956 4.082c.657 1.221 1.609 2.188 2.737 2.779-9.059 1.5-8.731 13.006-8.731 13.006l21.4.324s.572-11.615-8.37-13.291Zm89.892-10.556c0 .147-16.252.255-36.298.255-20.046 0-36.299-.108-36.299-.255 0-.147 16.253-.255 36.299-.255s36.298.098 36.298.255Zm0 7.577c0 .137-16.252.254-36.298.254-20.046 0-36.299-.117-36.299-.254 0-.138 16.253-.255 36.299-.255s36.298.117 36.298.255Zm0 7.596c0 .137-16.252.254-36.298.254-20.046 0-36.299-.117-36.299-.254 0-.138 16.253-.255 36.299-.255s36.298.117 36.298.255Zm-36.298 7.517c0 .137-8.126.255-18.145.255S395 307.065 395 306.928s8.126-.255 18.154-.255c10.027 0 18.145.108 18.145.255Z"/>
  <path fill="#263238" d="M470.684 176.12c-.765-1.049-1.354-2.941-.891-4.185-.909-.559-.985-1.49-.985-2.676a8.084 8.084 0 0 1 .884-3.381c.715-1.739 1.853-3.194 3.272-4.186a3.888 3.888 0 0 1 2.359-.666 3.971 3.971 0 0 1 2.301.902 5.87 5.87 0 0 1 1.762-1.625 5.06 5.06 0 0 1 2.165-.698 4.919 4.919 0 0 1 2.228.341 5.553 5.553 0 0 1 1.938 1.325c.362.495.778.933 1.236 1.303.842.52 1.801.324 2.717.422a4.342 4.342 0 0 1 2.108.834 5.273 5.273 0 0 1 1.553 1.857c.384.754.611 1.602.66 2.477.05.874-.079 1.75-.375 2.555a5.784 5.784 0 0 1 1.556 2.007c.38.799.599 1.688.639 2.6a20.506 20.506 0 0 1-.53 5.401c-.42 2.185-.891 4.489-2.22 6.106-.92 1.127-2.162 1.824-3.492 1.96a4.882 4.882 0 0 1-2.741-.599c-.856-.468-1.594-1.183-2.146-2.077"/>
  <path fill="#B78876" d="m490.545 213.424-15.074-.804c-.084-1.862.732-13.398.732-13.398s-5.704-.981-5.771-7.675c-.068-6.694.917-21.886.917-21.886 3.241-1.62 6.795-2.201 10.295-1.684 3.499.517 6.816 2.113 9.608 4.624l.841.755-1.548 40.068Z"/>
  <path fill="#AA6550" d="M476.194 199.124c2.631.058 5.217-.798 7.428-2.461 0 0-1.758 4.784-7.445 4.186l.017-1.725Z"/>
  <path fill="#B78876" d="M491.386 180.217c.101-.049 3.921-1.353 3.794 3.185-.126 4.538-4.012 3.46-4.012 3.323s.218-6.508.218-6.508Z"/>
  <path fill="#AA6550" d="M492.404 185.059s.068.049.177.117a.566.566 0 0 0 .513 0c.259-.174.474-.426.622-.729.148-.303.224-.647.219-.996a3.075 3.075 0 0 0-.143-1.146.949.949 0 0 0-.181-.386.792.792 0 0 0-.315-.242.303.303 0 0 0-.234.018.378.378 0 0 0-.17.188c-.059.118 0 .216-.059.216s-.075-.079-.042-.265a.491.491 0 0 1 .16-.274.464.464 0 0 1 .379-.108.925.925 0 0 1 .427.263c.12.129.211.291.263.472.155.399.224.837.201 1.274.016.411-.076.818-.262 1.168a1.872 1.872 0 0 1-.781.792.6.6 0 0 1-.32.015.67.67 0 0 1-.294-.152c-.151-.117-.168-.225-.16-.225Z"/>
  <path fill="#263238" d="M472.602 180.07c0 .248.08.488.225.67a.801.801 0 0 0 .558.31.683.683 0 0 0 .306-.047.77.77 0 0 0 .268-.181.923.923 0 0 0 .188-.286c.046-.109.072-.228.079-.349 0-.248-.08-.488-.225-.669a.806.806 0 0 0-.557-.311.677.677 0 0 0-.308.045.745.745 0 0 0-.269.18.904.904 0 0 0-.188.288 1.055 1.055 0 0 0-.077.35Zm-.176-1.068c.1.127.715-.402 1.589-.402.875 0 1.523.509 1.616.382.092-.127-.059-.274-.337-.51a2.034 2.034 0 0 0-1.287-.47 2 2 0 0 0-1.27.48c-.269.245-.362.461-.311.52Zm8.748 1.342c0 .249.08.488.225.67a.801.801 0 0 0 .557.31.667.667 0 0 0 .306-.043.749.749 0 0 0 .268-.178.896.896 0 0 0 .188-.284c.046-.109.073-.227.08-.347 0-.25-.082-.491-.229-.673a.795.795 0 0 0-.562-.307.669.669 0 0 0-.306.04.745.745 0 0 0-.267.178.9.9 0 0 0-.186.286c-.045.109-.07.228-.074.348Zm-.143-1.146c.101.117.724-.412 1.599-.412.874 0 1.514.519 1.606.392.093-.127-.05-.284-.336-.519a2.011 2.011 0 0 0-1.287-.461 1.921 1.921 0 0 0-1.271.48c-.269.235-.361.461-.311.52Zm-3.18 7.566a5.07 5.07 0 0 0-1.421-.304c-.219 0-.429-.078-.471-.254a1.54 1.54 0 0 1 .151-.775c.21-.627.429-1.294.665-1.96a36.911 36.911 0 0 0 1.48-5.195 38.303 38.303 0 0 0-1.842 5.038l-.631 1.96a1.764 1.764 0 0 0-.118.981.652.652 0 0 0 .146.242.533.533 0 0 0 .224.14c.124.041.251.061.379.059.475.094.958.117 1.438.068Zm2.583.706c-.143 0-.143 1.098-.959 1.882-.816.784-1.826.666-1.834.813-.008.147.227.216.656.235a2.214 2.214 0 0 0 1.531-.627c.415-.393.68-.959.741-1.578.033-.461-.068-.735-.135-.725Zm.37-12.271c.093.274.967.137 1.994.284 1.026.147 1.859.47 1.993.225.135-.245-.084-.382-.42-.647a2.925 2.925 0 0 0-1.514-.597 2.93 2.93 0 0 0-1.557.215c-.336.167-.53.382-.496.52Zm-8.042.852c.16.226.757 0 1.489 0 .732 0 1.338.157 1.481-.088.143-.245 0-.353-.303-.568a1.865 1.865 0 0 0-1.212-.383 1.824 1.824 0 0 0-1.177.471c-.278.215-.362.451-.278.568Z"/>
  <path fill="#263238" d="M492.396 173.032c-.076 1.961.294 4.088 0 5.989-.051.284-.69 1.059-.74 1.343-.337 1.676-.934 2.401-1.792.666a16.755 16.755 0 0 1-.673-3.273l-1.035-6.136c-1.337.809-2.825 1.22-4.332 1.196a3.967 3.967 0 0 1-2.134-.715 4.854 4.854 0 0 1-1.567-1.834 5.113 5.113 0 0 1-1.422 1.716 4.227 4.227 0 0 1-1.919.829 4.002 4.002 0 0 1-2.038-.22 4.549 4.549 0 0 1-1.755-1.227c-.279.45-.692.763-1.158.879a1.697 1.697 0 0 1-1.366-.251 2.642 2.642 0 0 1-.874-1.295 3.077 3.077 0 0 1-.051-1.646c.395-1.617 1.884-2.499 3.272-2.94 5.418-1.863 11.407-.402 16.278 2.94a8.15 8.15 0 0 1 1.968 1.725c.556.706 1.329 1.539 1.355 2.499"/>
  <path fill="#455A64" d="m502.28 236.751 5.813-18.456c-1.211-4.744-5.56-9.88-11.609-11.223-1.926-.431-3.794-1.244-6.048-1.352-2.061 1.897-4.603 2.946-7.23 2.984-2.626.037-5.189-.94-7.289-2.778l-.211-.177c-.58.079-1.354.167-2.322.304h-.193c-2.414.352-4.711 1.418-6.671 3.097l-30.342 21.103-17.817-15.781-9.027 8.243s23.344 27.199 25.607 27.846c1.573.451 17.144-9.458 26.582-15.594-.387 6.586-2.523 43.194-2.397 48.193h43.356v-29.365l-.202-17.044Z"/>
  <path fill="#455A64" d="M485.38 258.372s21.115 10.851 23.134 11.36c6.729 1.715 12.862-4.832 11.878-10.997-.505-3.205-12.391-41.273-12.391-41.273l-8.547 14.829 4.256 19.368-12.853-1.912-5.477 8.625Z"/>
  <path fill="#263238" d="M503.887 267.831a1.44 1.44 0 0 0-.337-.216l-1.009-.578-3.794-2.058-12.921-6.861.084.304 2.473-5.156c.53-1.098 1.052-2.186 1.54-3.215l-.185.118 15.453 1.764 4.593.48 1.245.108c.142.022.286.022.429 0a1.572 1.572 0 0 0-.421-.088l-1.236-.186-4.585-.618-15.445-1.96h-.117l-.068.127c-.488 1.03-1.009 2.108-1.539 3.215-.841 1.765-1.683 3.49-2.465 5.156l-.101.215.185.098 12.98 6.734 3.836 1.96 1.035.5c.117.071.241.123.37.157Z"/>
  <path fill="#263238" d="m489.965 249.071 1.808-10.262s-22.266-.333-22.022.128c.243.46 2.355 23.523 2.355 23.523s15.663-.686 15.083-.627l2.776-12.762Z"/>
  <path fill="#B78876" d="M491.706 244.396a1.858 1.858 0 0 0-1.173.418 2.382 2.382 0 0 0-.762 1.121 5.484 5.484 0 0 1-1.32 2.46c-.968.617-2.642 1.107-3.525.607-.883-.499-4.4-4.195-5.047-3.783-.648.412-1.144 1.333-.53 2.147.614.813 3.869 3.283 3.255 4.106-.614.824-7.487-2.793-8.538-2.47-1.052.324-1.683 1.069-1.06 1.569.622.499 5.283 2.538 5.552 3.263 0 0-7.049-2.156-7.31-1.646-.261.509-.707 1.333 0 1.646.706.314 6.78 2.147 7.31 2.461.871.421 1.78.73 2.709.921a26.32 26.32 0 0 1 2.843 1.049 5.36 5.36 0 0 0 4.374-.138l.715-.343c.542-.254 1-.7 1.312-1.276.311-.575.458-1.25.421-1.929l-.143-2.803.774-2.303.143-5.077Z"/>
  <path fill="#263238" d="M502.381 251.531c-.126 0-.219-5.88-.219-13.163 0-7.282.093-13.163.219-13.163.127 0 .219 5.881.219 13.163 0 7.283-.101 13.163-.219 13.163Zm-40.269-32.197c.033.404.033.811 0 1.215 0 .882-.05 1.96-.075 3.293a926.604 926.604 0 0 1-1.001 21.701 752.86 752.86 0 0 0-.228 3.283 5.737 5.737 0 0 1-.143 1.206 7.713 7.713 0 0 1 0-1.216c0-.882.051-1.96.085-3.293.084-2.774.235-6.616.437-10.86s.395-8.076.564-10.85c.084-1.304.159-2.401.218-3.283.005-.404.053-.806.143-1.196Z"/>
  <path fill="#fff" d="M501.961 225.205c0 .147-8.825.255-19.718.255-10.894 0-19.727-.108-19.727-.255 0-.147 8.833-.255 19.727-.255 10.893 0 19.718.118 19.718.255Zm.075 2.568c0 .137-8.967.255-20.021.255-11.053 0-20.029-.118-20.029-.255s8.967-.255 20.029-.255 20.021.108 20.021.255Zm.337 3.283c0 .147-8.833.255-19.727.255-10.893 0-19.726-.108-19.726-.255 0-.147 8.833-.255 19.726-.255 10.894 0 19.727.118 19.727.255Z"/>
  <path fill="#263238" d="M499.513 251.551a55.841 55.841 0 0 1-2.44 5.567 57.055 57.055 0 0 1-2.599 5.459 32.487 32.487 0 0 1 2.212-5.704 31.65 31.65 0 0 1 2.827-5.322Zm2.439.706a49.668 49.668 0 0 1-5.4 10.918 59.598 59.598 0 0 1 2.633-5.498 57.477 57.477 0 0 1 2.767-5.42Zm-78.822-33.286c.101.118-1.859 2.284-4.357 4.832a44.42 44.42 0 0 1-4.677 4.411 44.604 44.604 0 0 1 4.382-4.803 157.077 157.077 0 0 1 3.239-3.205 8.843 8.843 0 0 1 1.413-1.235Zm2.07 1.794a45.056 45.056 0 0 1-4.416 4.901 132.096 132.096 0 0 1-3.256 3.263 6.986 6.986 0 0 1-1.438 1.235 8.253 8.253 0 0 1 1.228-1.509c.841-.882 1.918-2.078 3.18-3.372a145.184 145.184 0 0 1 3.263-3.254 8.129 8.129 0 0 1 1.439-1.264Z"/>
  <path fill="#FF725E" d="M468.556 448.538v-8.821l14.25-.206.185 12.967-.841.078c-3.929.314-19.996 1.255-22.637.363-3.02-1.029 9.043-4.381 9.043-4.381Z"/>
  <path fill="#000" d="M477.809 452.38c.2-1.401.835-2.667 1.784-3.558.931-.893 2.119-1.341 3.322-1.255l.051 4.636-5.157.177Z" opacity=".4"/>
  <path fill="#000" d="M462.668 450.42s-4.207 1.49-3.685 2.293c.522.804 16.824.569 23.975-.274v-.373l-18.978.471s-.471-2.088-1.312-2.117Z" opacity=".4"/>
  <path fill="#263238" d="M483.151 452.057h-.244l-.706.058-2.583.167c-2.187.127-5.207.245-8.547.304-3.339.059-6.368 0-8.555 0l-2.591-.088h-.95 12.088c3.339 0 6.359-.157 8.547-.245l2.591-.098h.706a.982.982 0 0 1 .244-.098Z"/>
  <path fill="#263238" d="M463.963 452.821a7.958 7.958 0 0 0-.505-1.441 6.741 6.741 0 0 0-.892-1.137 2.45 2.45 0 0 1 1.041 1.037c.25.46.374.997.356 1.541Zm4.172-2.568s-.244-.255-.454-.637c-.21-.382-.353-.706-.311-.735.042-.03.244.255.454.627.21.373.353.716.311.745Zm1.153-.725s-.261-.138-.513-.392c-.253-.255-.421-.49-.387-.53.033-.039.252.128.505.383.252.254.42.49.395.539Zm.706-1.608a1.523 1.523 0 0 1-.74.118 1.583 1.583 0 0 1-.749-.078 1.51 1.51 0 0 1 .741-.128c.252-.04.508-.01.748.088Zm.244-1.087a1.323 1.323 0 0 1-.841.294c-.284.06-.577.019-.841-.118.278-.056.559-.083.841-.078.278-.06.559-.093.841-.098Z"/>
  <path fill="#263238" d="M467.639 448.812a2.284 2.284 0 0 1-.917 0 4.381 4.381 0 0 1-.976-.235 2.296 2.296 0 0 1-.563-.255.488.488 0 0 1-.143-.14.589.589 0 0 1-.085-.193.476.476 0 0 1 .014-.234.409.409 0 0 1 .121-.187 1.49 1.49 0 0 1 .721-.213c.251-.007.5.051.729.17.229.12.432.297.594.52.163.222.281.485.345.767a.803.803 0 0 1 0 .285 3.406 3.406 0 0 0-.429-.902 1.669 1.669 0 0 0-.791-.578 1.213 1.213 0 0 0-1.085.107c-.143.128-.084.324.076.432.166.103.34.185.521.245.307.123.622.215.943.274.572.108.925.098.925.137Z"/>
  <path fill="#263238" d="M467.404 448.9a1.204 1.204 0 0 1-.118-.745c.028-.279.112-.548.244-.784a1.01 1.01 0 0 1 .317-.39.81.81 0 0 1 .44-.158.32.32 0 0 1 .129.058.4.4 0 0 1 .1.112.47.47 0 0 1 .057.31 1.274 1.274 0 0 1-.152.48 3.45 3.45 0 0 1-.42.657c-.141.194-.32.345-.522.441 0 0 .177-.196.429-.539.147-.199.274-.416.379-.647.118-.226.202-.637 0-.676-.202-.04-.463.245-.597.46a1.913 1.913 0 0 0-.253.696c-.034.24-.045.483-.033.725Zm15.453-1.381s-.412 0-1.052.058c-.838.127-1.629.52-2.288 1.137a5.498 5.498 0 0 0-1.413 2.382c-.202.716-.219 1.196-.252 1.196a1.325 1.325 0 0 1 0-.333c.026-.306.076-.608.151-.902.245-.98.737-1.851 1.413-2.5.682-.637 1.51-1.026 2.381-1.117.26-.035.522-.035.782 0a.948.948 0 0 1 .278.079Zm-1.599-6.891c.112 1.132.165 2.271.16 3.411a35.93 35.93 0 0 1 0 3.411 32.992 32.992 0 0 1-.16-3.401 33.652 33.652 0 0 1 0-3.421Zm-5.282 10.164a7.051 7.051 0 0 1-2.078.274 7.18 7.18 0 0 1-2.086-.166c0-.059.933 0 2.086 0 1.152 0 2.069-.167 2.078-.108Z"/>
  <path fill="#263238" d="M478.769 450.743s-.076.235-.169.48c-.092.245-.143.471-.185.471-.042 0-.076-.255 0-.549.076-.294.32-.441.354-.402Zm1.035-1.539s-.051.216-.202.392c-.152.177-.287.284-.32.245-.034-.039.05-.215.202-.392.151-.176.286-.284.32-.245Zm1.496-.715c0 .049-.193.049-.403.147-.211.098-.362.215-.396.176-.033-.039.076-.264.337-.372.261-.108.479-.01.462.049Zm1.069-.353c0 .059-.059.137-.177.196-.117.059-.227.059-.244 0-.017-.059.059-.137.177-.196s.228-.049.244 0Z"/>
  <path fill="#FF725E" d="m511.853 442.902 1.363 6.645s9.329 14.124 12.206 13.428c1.884-.451-.437-4.136-3.979-14.859l-.749-4.43-8.841-.784Z"/>
  <path fill="#263238" d="M525.801 460.897c-.12.232-.292.422-.497.549-.292.15-.614.202-.93.152a1.619 1.619 0 0 1-.861-.436 57.358 57.358 0 0 1-4.644-5.126 109.023 109.023 0 0 1-4.206-5.646l-1.186-1.784-.328-.49-.118-.166s0 .068.093.186l.294.51c.269.441.656 1.068 1.152 1.832a70.747 70.747 0 0 0 4.207 5.695 49.494 49.494 0 0 0 4.702 5.107c.313.25.674.405 1.051.45.293.026.585-.049.842-.215a1.14 1.14 0 0 0 .395-.422.677.677 0 0 0 .034-.196Z"/>
  <path fill="#263238" d="M524.48 456.359a1.294 1.294 0 0 0-.766-.107 3.652 3.652 0 0 0-1.758.715 3.513 3.513 0 0 0-1.278 1.578c-.126.265-.195.56-.202.863 0 0 .084-.324.302-.804a3.781 3.781 0 0 1 1.262-1.47 4.139 4.139 0 0 1 1.683-.735 5.8 5.8 0 0 1 .757-.04Zm-8.816-3.313c.047-.102.083-.211.109-.323.084-.297.146-.602.185-.912a5.604 5.604 0 0 0-.437-3.018c-.403-.94-1.067-1.694-1.884-2.137a2.542 2.542 0 0 0-.766-.275.728.728 0 0 0-.294 0 6.24 6.24 0 0 1 1.009.432c.771.46 1.396 1.195 1.783 2.097.407.903.572 1.928.472 2.941-.093.715-.228 1.186-.177 1.195Z"/>
  <path fill="#263238" d="M512.45 444s.169.98.345 2.127c.071.719.233 1.423.48 2.087.042 0-.143-.98-.32-2.127a7.952 7.952 0 0 0-.505-2.087Zm9.153 5.057a1.814 1.814 0 0 0-1.195 0 1.942 1.942 0 0 0-1.076.588c0 .059.487-.235 1.118-.401.631-.167 1.153-.128 1.153-.187Zm.193 1.137a1.281 1.281 0 0 0-1.009 0c-.345.055-.66.257-.883.569 0 0 .403-.245.925-.383.521-.137.959-.127.967-.186Zm.749 1.431a1.344 1.344 0 0 0-1.047-.156 1.54 1.54 0 0 0-.888.666c.291-.204.601-.365.926-.48a3.965 3.965 0 0 1 1.009-.03Zm-1.581-3.048s-.429-.137-1.094-.431a8.109 8.109 0 0 1-1.127-.637 5.856 5.856 0 0 1-.623-.461c-.185-.157-.395-.402-.387-.657.009-.254.278-.402.497-.333.22.087.417.239.572.441.345.382.639.745.841 1.049.479.627.74 1.039.765.98a1.569 1.569 0 0 0-.159-.314c-.16-.274-.331-.539-.513-.794-.263-.38-.544-.743-.842-1.087a1.437 1.437 0 0 0-.647-.5c-.075-.03-.155-.04-.233-.03a.497.497 0 0 0-.221.09.577.577 0 0 0-.166.193.696.696 0 0 0-.079.256c.014.171.064.335.145.478.08.144.189.262.318.346.203.171.417.325.639.46.371.243.759.447 1.161.608.275.11.556.199.841.265.101.042.205.068.312.078Z"/>
  <path fill="#263238" d="M520.476 448.44s.058-.471.168-1.216c.062-.431.169-.853.319-1.254.088-.231.204-.446.345-.637.143-.187.362-.353.53-.236.169.118.202.422.177.667-.034.25-.096.494-.185.725-.15.402-.355.772-.606 1.098-.429.559-.774.823-.748.853a.842.842 0 0 0 .244-.167 4.281 4.281 0 0 0 1.253-1.705c.101-.248.169-.513.202-.784a.939.939 0 0 0-.016-.471.815.815 0 0 0-.237-.382.526.526 0 0 0-.408-.016.63.63 0 0 0-.323.29 2.713 2.713 0 0 0-.37.696c-.151.416-.25.855-.295 1.304 0 .382-.05.696-.059.901-.008.206-.008.334.009.334Z"/>
  <path fill="#000" d="m513.216 449.547-.656-3.195s2.279.5 2.877 2.49a9.793 9.793 0 0 1 .446 3.411l4.963 6.233s1.253-2.832 3.508-2.156c0 0 1.775 4.558 1.682 5.695-.092 1.136-1.194.98-1.598.793a20.793 20.793 0 0 1-4.45-4.097 116.21 116.21 0 0 1-6.772-9.174Z" opacity=".4"/>
  <path fill="#263238" d="m458.958 278.789 6.788 167.347 18.65.52-1.472-145.099 27.895 145.373 14.982-.794-24-167.004-42.843-.343Z"/>
  <path fill="#455A64" d="M478.356 281.053c-.017.922.039 1.844.168 2.754.152 1.686.387 4.019.682 6.596.098 1.225.269 2.44.513 3.637.22 1.007.698 1.913 1.371 2.597.45.46.995.774 1.581.911.213.066.436.066.648 0-.792-.151-1.527-.578-2.107-1.225-.579-.648-.977-1.485-1.14-2.401a35.596 35.596 0 0 1-.479-3.587c-.295-2.578-.572-4.901-.842-6.587-.068-.909-.2-1.811-.395-2.695Zm4.585.99c-.051 0 .126.313 0 .754a.951.951 0 0 1-.15.318.81.81 0 0 1-.246.222.532.532 0 0 1-.352.021.602.602 0 0 1-.304-.208.711.711 0 0 1-.19-.339.81.81 0 0 1 .005-.406.865.865 0 0 1 .174-.299.721.721 0 0 1 .264-.191c.37-.156.614 0 .639 0 .025 0-.194-.392-.715-.274a.932.932 0 0 0-.412.218 1.143 1.143 0 0 0-.286.409 1.35 1.35 0 0 0-.034.668c.045.222.145.424.287.58a.958.958 0 0 0 .514.3c.192.04.391.013.57-.078.135-.084.251-.204.339-.351.088-.146.145-.315.166-.492.076-.617-.252-.901-.269-.852Zm11.836 2.891a5.62 5.62 0 0 0 .362-2.359 5.466 5.466 0 0 0-.64-2.277c-.109 0 .185 1.039.252 2.303.068 1.265-.117 2.294.026 2.333Zm-2.667-.313c.342-.745.48-1.593.396-2.431a4.618 4.618 0 0 0-.539-2.401c.007.806.055 1.611.143 2.411a21.725 21.725 0 0 0 0 2.421Zm-22.931-.314c.042-.833.026-1.669-.05-2.499.06-.832.06-1.668 0-2.5a5.327 5.327 0 0 0-.371 2.509c-.064.86.082 1.723.421 2.49Zm-2.894-.304c.109-.049-.202-1.157-.236-2.548-.033-1.392.202-2.529.093-2.568a4.599 4.599 0 0 0-.48 2.577 4.612 4.612 0 0 0 .623 2.539Z"/>
  <path fill="#B78876" d="M417.242 215.629s-3.441-6.783-4.248-7.488c-.808-.706-8.042-3.637-8.656-3.401-.614.235-9.254 2.136-8.269 3.322.984 1.186 7.066-.245 7.066-.245l.841.461s-5.232 1.078-6.326 1.843c-1.094.764-.639 2.146.32 1.96.959-.186 5.501-1.245 5.779-1.039.277.206-4.938 1.529-5.493 1.96-.749.53-.842 2.108.151 2.009.564-.058 5.468-1.636 5.468-1.636a39.819 39.819 0 0 0-4.206 2.234c-.581.667-.101 1.647.749 1.412.58-.157 3.314-1.745 4.088-1.96 0 0 .732.215 1.422 1.96.689 1.744 4.315 5.067 4.315 5.067l6.999-6.459Z"/>
  <path fill="#AA6550" d="M396.069 208.062a3.456 3.456 0 0 0 1.59.481 8.09 8.09 0 0 0 1.8.058c.664-.098 1.388-.235 2.153-.372l1.615-.314h-.101a21.52 21.52 0 0 0 3.777 1.294 21.267 21.267 0 0 0-3.65-1.725h-.093l-1.607.284-2.128.402a9.648 9.648 0 0 1-1.741.049c-.993-.068-1.599-.225-1.615-.157Z"/>
  <path fill="#455A64" d="M389.751 203.24s-6.275 22.18-8.412 26.66l21.367 7.606 3.886-2.892s5.19-17.858 5.847-23.856l-22.688-7.518Z"/>
  <path fill="#263238" d="m403.867 233.791-1.127 3.714 3.886-2.891-2.759-.823Z"/>
  <path fill="#fff" d="M406.668 218.501a13.583 13.583 0 0 1-2.389-.872l-5.712-2.294-5.72-2.186a14.093 14.093 0 0 1-2.356-.98c.83.131 1.649.344 2.448.637a95.505 95.505 0 0 1 5.788 2.059 94.384 94.384 0 0 1 5.686 2.43c.784.315 1.539.719 2.255 1.206Zm-1.817 4.969a11.652 11.652 0 0 1-2.347-.617c-1.43-.451-3.365-1.128-5.552-1.961a96.22 96.22 0 0 1-5.46-2.264 11.695 11.695 0 0 1-2.204-1.127c.787.182 1.558.444 2.305.784l5.493 2.127 5.502 2.088c.777.246 1.534.571 2.263.97Zm-2.162 4.538a60.904 60.904 0 0 1-7.192-2.558 58.556 58.556 0 0 1-7.041-3.039 118.064 118.064 0 0 1 14.233 5.597Z"/>
  <path fill="#B78876" d="M415.029 216.354a1.56 1.56 0 0 1-1.009.381 1.56 1.56 0 0 1-1.009-.381c-.631-.421-1.111-1.078-1.683-1.558-1.783-1.411-4.332-.98-6.065-2.539-.236-.205-.48-.558-.353-.882.126-.323.454-.333.74-.333l7.167.069"/>
  <path fill="#AA6550" d="M412.783 211.15a2.314 2.314 0 0 0-.773-.108l-2.112-.088-3.138-.079h-.908a1.26 1.26 0 0 0-1.043.275.737.737 0 0 0-.16.372.801.801 0 0 0 .05.412c.081.212.208.395.371.529.277.255.583.466.908.628 1.217.491 2.462.881 3.727 1.166.525.165 1.026.42 1.489.755.42.323.773.715 1.127 1.038.267.298.587.523.938.66.35.137.722.183 1.089.134.53-.127.698-.47.681-.47a1.873 1.873 0 0 1-.698.284 2.128 2.128 0 0 1-.991-.205 2.444 2.444 0 0 1-.834-.657 14.85 14.85 0 0 0-1.153-1.147 4.829 4.829 0 0 0-1.564-.843 29.51 29.51 0 0 1-3.668-1.186 4.033 4.033 0 0 1-.841-.559c-.236-.215-.353-.509-.227-.627.126-.118.446-.147.757-.137h4.046c.892 0 1.615 0 2.111-.059.275.014.549-.016.816-.088Z"/>
  <path fill="#263238" d="M250.413 176.149a8.788 8.788 0 0 0-.377-4.27c-.474-1.352-1.272-2.517-2.299-3.355-1.046-.802-2.257-1.265-3.508-1.341a6.23 6.23 0 0 0-3.608.91c-1.097.705-2.028 1.712-2.713 2.934a9.935 9.935 0 0 0-1.216 4.074c-.235 3.283 1.035 6.41 2.12 9.448 1.085 3.038 2.028 6.44 1.127 9.556-.74 2.578-2.599 4.45-4.206 6.43-1.543 1.712-2.635 3.902-3.146 6.312-.387 2.421.387 5.234 2.271 6.381.453.183.86.493 1.187.901.521.863 0 2.01-.379 2.941a7.856 7.856 0 0 0-.193 4.597c.841 3.293 3.962 5.4 6.914 5.204 1.476-.169 2.899-.73 4.159-1.641 1.26-.911 2.324-2.147 3.109-3.612 1.547-2.957 2.389-6.34 2.44-9.802a86.163 86.163 0 0 0-.496-10.301c-.69-8.605 2.759-17.515 3.129-26.15"/>
  <path fill="#FFBE9D" d="M257.041 227.459a6.432 6.432 0 0 0 2.932-.429 7.255 7.255 0 0 0 2.554-1.732 8.632 8.632 0 0 0 1.769-2.757 9.801 9.801 0 0 0 .703-3.344c.152-4.695.286-9.429.286-9.429s6.099-.667 6.545-7.704c.446-7.037.235-23.268.235-23.268-3.34-1.971-7.072-2.866-10.809-2.593-3.737.272-7.344 1.702-10.448 4.141l.378 24.758v13.32c.042 4.499 2.019 8.694 5.855 9.037Z"/>
  <path fill="#263238" d="M265.824 193.478c-.445-.754-1.12-1.282-1.887-1.477a2.719 2.719 0 0 0-2.244.428c-.682.552-1.174 1.369-1.388 2.304a4.706 4.706 0 0 0 .219 2.803 5.282 5.282 0 0 0 1.247 1.667 4.41 4.41 0 0 0 1.714.95c.563.137 1.062.515 1.398 1.059a3.02 3.02 0 0 1 .419 1.881c-.255 1.85-.995 3.562-2.12 4.901-1.858 2.215-4.334 3.585-6.982 3.862-2.574.352-5.518-.275-7.016-2.735-1.093-1.794-1.169-4.136-1.203-6.332l-.286-15.584c-.101-1.869 0-3.747.303-5.586.315-1.853 1.216-3.501 2.524-4.617 1.472-1.127 3.365-1.215 5.005-1.852 2.086-.784 3.861-2.402 5.821-3.568 1.96-1.166 4.358-1.862 6.318-.716 1.413.824 2.355 2.47 3.726 3.372 1.952 1.294 4.61.98 5.552 4.342a6.609 6.609 0 0 1 0 3.578c-1.329 4.557-6.166 6.39-9.648 4.42-.068.774.58 2.49-.11 4.901-.227.784-.302 1.96-1.346 1.96"/>
  <path fill="#263238" d="M249.067 208.356c-3.413-3.79-5.424-8.981-5.606-14.471-.182-5.49 1.479-10.846 4.63-14.932"/>
  <path fill="#455A64" d="M253.66 210.621s-.101.058-.312.107a3 3 0 0 1-.917 0c-1.128-.196-2.168-.827-2.952-1.793a18.35 18.35 0 0 1-2.667-4.901 34.903 34.903 0 0 1-1.985-6.665 29.292 29.292 0 0 1-.513-7.037c.092-1.927.4-3.832.917-5.665a20.458 20.458 0 0 1 1.362-3.548c.202-.402.37-.696.488-.892.118-.196.194-.294.202-.285a34.322 34.322 0 0 0-1.75 4.833 27.013 27.013 0 0 0-.841 5.576 30.009 30.009 0 0 0 .539 6.861 35.697 35.697 0 0 0 1.926 6.577 18.717 18.717 0 0 0 2.524 4.813c.728.942 1.694 1.59 2.759 1.852.402.094.81.15 1.22.167Zm-6.259-30.963c.067 0 .538.98 1.447 2.607a33.598 33.598 0 0 0 4.088 5.724 30.768 30.768 0 0 0 5.047 4.529c1.405.98 2.331 1.499 2.297 1.578a2.391 2.391 0 0 1-.69-.265 18.408 18.408 0 0 1-1.766-.98 25.675 25.675 0 0 1-5.224-4.479 28.143 28.143 0 0 1-4.047-5.881 21.773 21.773 0 0 1-.933-2.019 3.264 3.264 0 0 1-.219-.814Z"/>
  <path fill="#455A64" d="M259.094 190.636a6.997 6.997 0 0 1-1.952-1.128c-3.012-2.163-5.543-5.125-7.386-8.644a9.491 9.491 0 0 1-.959-2.274c.444.662.852 1.356 1.22 2.078 1.949 3.354 4.423 6.251 7.293 8.537.618.437 1.213.915 1.784 1.431Zm7.831 0a2.684 2.684 0 0 1-.841-.079 14.506 14.506 0 0 1-2.237-.529c-4.895-1.573-9.22-4.954-12.324-9.635a19.133 19.133 0 0 1-1.27-2.205 3.696 3.696 0 0 1-.379-.872c.067 0 .681 1.146 1.893 2.852a28.194 28.194 0 0 0 5.501 5.792 24.538 24.538 0 0 0 6.68 3.715c1.817.657 2.994.872 2.977.961Zm-24.504 29.306s.118-.206.261-.618a3.567 3.567 0 0 0 .075-1.901c-.231-.995-.74-1.871-1.446-2.49-.8-.774-1.868-1.382-2.987-2.244a7.229 7.229 0 0 1-1.564-1.657 5.023 5.023 0 0 1-.8-2.538c.021-1.998.643-3.923 1.759-5.44 1.051-1.647 2.405-3.137 3.196-5.107.758-2.069.977-4.353.631-6.566a34.295 34.295 0 0 0-1.615-6.528 54.958 54.958 0 0 1-1.75-6.077c-.387-1.96-.656-4.028-.059-5.881.287-.861.807-1.591 1.481-2.078a2.5 2.5 0 0 1 1.036-.415 2.37 2.37 0 0 1 1.092.092c1.145.499 2.148 1.361 2.894 2.489l1.766 2.363 1.111 1.509c.131.173.252.356.362.549 0 0-.16-.147-.429-.48l-1.17-1.441-1.817-2.313c-.735-1.055-1.699-1.86-2.793-2.333a2.104 2.104 0 0 0-.965-.064 2.214 2.214 0 0 0-.91.378c-.603.453-1.066 1.119-1.321 1.901-.539 1.647-.278 3.627.118 5.567a55.135 55.135 0 0 0 1.758 6.008 34.293 34.293 0 0 1 1.682 6.626c.352 2.316.115 4.7-.681 6.861-.841 2.078-2.229 3.578-3.264 5.175-1.053 1.434-1.647 3.249-1.683 5.136.03.84.276 1.649.707 2.323a6.99 6.99 0 0 0 1.472 1.598 32.937 32.937 0 0 1 2.961 2.322c.732.67 1.246 1.61 1.456 2.666.133.656.08 1.344-.152 1.961-.093.249-.234.47-.412.647Z"/>
  <path fill="#FF725E" d="m228.204 446.656 4.097-5.812-9.253-9.027-6.082 8.439.547.597c2.448 2.657 12.618 13.311 14.754 14.369 2.356 1.176-4.063-8.566-4.063-8.566Z"/>
  <path fill="#fff" d="M220.398 443.441a5.605 5.605 0 0 0 .471-3.46c-.203-1.181-.78-2.23-1.615-2.94l-2.221 3.038 3.365 3.362Z" opacity=".5"/>
  <path fill="#fff" d="M231.224 451.576s2.104 3.617 1.38 3.813c-.723.196-11.365-10.115-15.68-15.133l.193-.226 12.282 12.144s1.262-1.098 1.825-.598Z" opacity=".4"/>
  <path fill="#263238" d="M216.974 439.873s.042.069.143.177l.438.48 1.632 1.725a218.39 218.39 0 0 0 5.493 5.538c2.179 2.127 4.206 3.979 5.653 5.312l1.75 1.559.479.411.168.137-.151-.156-.463-.441-1.724-1.608a403.117 403.117 0 0 1-5.62-5.351 344.284 344.284 0 0 1-5.518-5.489l-1.682-1.686-.455-.451-.143-.157Z"/>
  <path fill="#263238" d="M229.281 452.341c.309-.251.639-.464.984-.637a4.162 4.162 0 0 1 1.119-.187 1.692 1.692 0 0 0-1.161.03 1.998 1.998 0 0 0-.942.794Zm-1.581-4.283c.202.004.403-.043.589-.138.311-.117.555-.245.546-.294a1.215 1.215 0 0 0-.589.138c-.277.156-.563.245-.546.294Zm-.421-1.196c0 .049.227.078.505.059.277-.02.513-.059.505-.108a.904.904 0 0 0-.505-.059c-.286.01-.505.059-.505.108Zm.252-1.49s.169.284.438.549c.269.264.496.451.53.411.034-.039-.168-.274-.438-.539a1.696 1.696 0 0 0-.53-.421Zm.354-.872c.095.266.236.507.414.707.178.201.389.357.62.459 0-.049-.243-.265-.521-.578-.278-.314-.48-.618-.513-.588Z"/>
  <path fill="#263238" d="M228.692 447.42c.169.229.371.422.598.569.239.181.492.335.757.46.156.081.32.14.488.177a.392.392 0 0 0 .302-.069.391.391 0 0 0 .098-.169.463.463 0 0 0 .012-.203 1.676 1.676 0 0 0-.383-.584 1.377 1.377 0 0 0-.56-.339 1.247 1.247 0 0 0-.63-.03 1.36 1.36 0 0 0-.581.286.566.566 0 0 0-.151.177c.215-.156.451-.269.698-.334.267-.048.541-.011.791.108.298.14.537.411.664.755.042.167-.092.265-.244.235a2.1 2.1 0 0 1-.462-.157 5.415 5.415 0 0 1-.749-.411c-.404-.275-.639-.5-.648-.471Z"/>
  <path fill="#263238" d="M228.81 447.597s.219-.069.412-.412a1.45 1.45 0 0 0 .202-.666 1.013 1.013 0 0 0-.026-.455.896.896 0 0 0-.218-.378.262.262 0 0 0-.23-.031.282.282 0 0 0-.106.063.326.326 0 0 0-.076.105 1.108 1.108 0 0 0-.118.411 3.373 3.373 0 0 0 0 .696c.006.213.055.422.143.608v-.617a3.138 3.138 0 0 1 .051-.657c0-.235.151-.549.328-.431.176.117.185.45.176.676-.01.216-.062.427-.151.617-.114.173-.244.33-.387.471Zm-9.531-10.458c.235.217.46.45.673.696a4.67 4.67 0 0 1 .998 2.17c.149.82.095 1.671-.157 2.456-.193.598-.403.921-.378.98.025.059.067-.068.16-.215a4.893 4.893 0 0 0 .529-3.217 4.483 4.483 0 0 0-1.059-2.223 3.42 3.42 0 0 0-.522-.48c-.16-.167-.235-.167-.244-.167Zm4.19-3.607a25.865 25.865 0 0 0-1.683 2.146 23.049 23.049 0 0 0-1.565 2.255 46.932 46.932 0 0 0 3.231-4.401h.017Zm-1.187 9.988a10.326 10.326 0 0 0 2.692 2.665s-.614-.588-1.354-1.323c-.741-.735-1.304-1.372-1.338-1.342Z"/>
  <path fill="#263238" d="M220.466 441.746c-.042 0-.059.196-.11.421-.05.225-.126.402-.093.431.034.03.169-.127.228-.382s.017-.47-.025-.47Zm.025-1.667c-.042 0-.059.167-.051.382.009.216.068.363.101.363.034 0 .068-.176.051-.382-.017-.206-.059-.363-.101-.363Zm-.657-1.401s.102.156.203.353c.101.196.134.362.177.362.042 0 .067-.225-.051-.451-.118-.225-.312-.313-.329-.264Zm-.546-.892v.235c0 .108.118.186.16.157.042-.03 0-.128 0-.235 0-.108-.127-.187-.16-.157Z"/>
  <path fill="#FF725E" d="m270.871 449.067-.143-7.527-12.097.225.109 11.017h.749c3.365.156 17.001.509 19.222-.324 2.507-.882-7.84-3.391-7.84-3.391Z"/>
  <path fill="#fff" d="M263.148 452.586c-.201-1.172-.764-2.218-1.581-2.941-.809-.73-1.824-1.08-2.843-.98l.05 3.921h4.374Z" opacity=".5"/>
  <path fill="#fff" d="M275.918 450.498s3.617 1.147 3.18 1.843c-.438.696-14.259.98-20.358.441v-.324l16.118-.127s.379-1.784 1.06-1.833Z" opacity=".4"/>
  <path fill="#263238" d="M258.589 452.458h.808l2.204.079c1.859 0 4.424.059 7.259 0s5.401-.167 7.26-.275l2.196-.147.597-.049a.57.57 0 0 0 .21 0h-.807l-2.196.088a294.98 294.98 0 0 1-7.26.216c-2.835.049-5.4 0-7.259 0h-3.012v.088Z"/>
  <path fill="#263238" d="M274.9 452.556c.087-.429.22-.844.396-1.235.21-.359.455-.688.731-.98a2.105 2.105 0 0 0-.861.908 2.586 2.586 0 0 0-.266 1.317v-.01Zm-3.6-2.048s.202-.226.37-.549c.168-.323.286-.608.252-.637-.033-.029-.201.216-.37.549-.168.333-.286.608-.252.637Zm-.984-.627s.21-.118.42-.344c.211-.225.345-.421.32-.46-.025-.039-.219.117-.421.343-.201.225-.353.461-.319.461Zm-.64-1.284c.202.086.418.117.631.088a.38.38 0 0 0 .129.218.283.283 0 0 0 .22.063.306.306 0 0 0 .201-.122.408.408 0 0 0 .08-.247.41.41 0 0 0-.08-.248.31.31 0 0 0-.201-.122.287.287 0 0 0-.22.063.38.38 0 0 0-.129.218 1.468 1.468 0 0 0-.631.089Zm-.227-.931c.211.156.457.234.707.225.246.048.5.003.723-.127a3.418 3.418 0 0 0-.715 0 3.041 3.041 0 0 0-.715-.098Z"/>
  <path fill="#263238" d="M271.712 449.273c.256.048.518.048.774 0a3.57 3.57 0 0 0 .841-.235c.166-.051.325-.13.471-.236a.51.51 0 0 0 .194-.284.406.406 0 0 0-.017-.199.353.353 0 0 0-.109-.154 1.243 1.243 0 0 0-.958-.113 1.427 1.427 0 0 0-.8.623 1.966 1.966 0 0 0-.244.617.673.673 0 0 0 0 .245c.074-.282.191-.548.344-.784.171-.242.399-.42.657-.509a1.022 1.022 0 0 1 .925.049c.126.108.084.274-.051.372a1.89 1.89 0 0 1-.437.226c-.26.111-.528.199-.799.264-.513.079-.791.088-.791.118Z"/>
  <path fill="#263238" d="M271.897 449.312c.084-.194.111-.414.076-.627a1.571 1.571 0 0 0-.219-.667.872.872 0 0 0-.274-.322.708.708 0 0 0-.374-.129.319.319 0 0 0-.194.159.413.413 0 0 0-.041.273c.018.144.064.281.134.401.105.2.232.381.379.54.244.274.437.372.446.352.008-.019-.16-.156-.379-.441a2.464 2.464 0 0 1-.328-.539c-.109-.186-.185-.529 0-.568.185-.039.395.196.513.372.112.174.19.375.227.588.028.201.04.405.034.608Zm-13.106-.715s.345-.049.892 0a3.508 3.508 0 0 1 1.971.924 4.465 4.465 0 0 1 1.234 2.016c.193.598.219.98.244.98a.846.846 0 0 0 0-.284 4.778 4.778 0 0 0-.143-.765c-.235-.82-.67-1.543-1.254-2.077a3.445 3.445 0 0 0-2.044-.883 2.635 2.635 0 0 0-.664 0c-.16.049-.244.079-.236.089Z"/>
  <path fill="#263238" d="M259.935 442.706a31.34 31.34 0 0 0-.059 2.94c-.025.965 0 1.931.076 2.892.07-.962.093-1.927.068-2.892a26.459 26.459 0 0 0-.085-2.94Zm4.719 8.478c.584.14 1.18.199 1.775.177a5.846 5.846 0 0 0 1.767-.206c0-.049-.799 0-1.775 0-.976 0-1.758-.02-1.767.029Zm-2.372.039s.067.196.152.402c.084.206.134.392.177.392.042 0 .058-.225-.043-.46-.101-.236-.261-.373-.286-.334Zm-.908-1.284s.05.187.176.324c.127.137.253.245.287.206.034-.04-.051-.177-.177-.324-.126-.147-.261-.265-.286-.206Zm-1.288-.568s.169 0 .354.118c.185.117.303.176.336.147.034-.03-.075-.226-.294-.314-.219-.088-.404.01-.396.049Zm-.916-.265c0 .049.059.118.16.167.101.049.194 0 .21 0 .017 0-.059-.108-.16-.157s-.193-.049-.21-.01Zm-5.788-159.967s-4.029 19.857-2.885 23.788c1.144 3.93 8.513 6.204 8.513 6.204l-.244 54.387-40.824 58.808 15.074 14.379s44.189-58.906 48.084-69.589c3.895-10.684-2.524-88.849-2.524-88.849l-25.194.872Z"/>
  <path fill="#263238" d="m274.236 281.072 2.002 165.182-20.77.118-13.459-131.867c-2.053-7.841-4.391-16.025-3.971-25.376l2.785-9.497 33.413 1.44Z"/>
  <path fill="#455A64" d="M250.152 306.301c.173.149.336.313.488.49.294.343.74.853 1.278 1.539 1.094 1.372 2.625 3.421 4.45 6.067v.059c.379 7.4 1.127 18.191 2.028 30.178.715 9.801 1.455 18.681 1.909 25.631v.068l-.042.059-5.779 9.017-1.598 2.451-.429.637-.16.205s0-.088.117-.245l.387-.666 1.531-2.519 5.662-9.115v.117c-.547-6.939-1.245-15.868-2.011-25.601-.9-11.987-1.59-22.788-1.884-30.198v.098a150.262 150.262 0 0 0-4.341-6.155c-.521-.705-.942-1.235-1.219-1.597a3.344 3.344 0 0 1-.387-.52Zm22.78 64.601a18.22 18.22 0 0 0-5.611-1.706 18.4 18.4 0 0 0-5.762.647 4.317 4.317 0 0 1 1.615-.735c2.75-.825 5.657-.555 8.26.764a4.39 4.39 0 0 1 1.498 1.03Zm7.327 7.645c.092.088-5.746 9.223-13.047 20.406-7.302 11.183-13.3 20.181-13.393 20.093-.092-.089 5.738-9.223 13.048-20.407 7.31-11.183 13.257-20.171 13.392-20.092Zm-.976-85.203a4.165 4.165 0 0 1-1.169 1.793 5.642 5.642 0 0 1-2.068 1.365 5.008 5.008 0 0 1-2.363.281 5.211 5.211 0 0 1-2.262-.849 6.177 6.177 0 0 1-1.778-1.836 4.295 4.295 0 0 1-.841-2.038c.326.625.679 1.23 1.059 1.813.963 1.353 2.342 2.213 3.842 2.396 1.499.183 3.001-.325 4.184-1.416.908-.813 1.287-1.568 1.396-1.509Z"/>
  <path fill="#FFBE9D" d="M234.497 245.601s-3.155 26.876 0 30.277c3.154 3.401 6.174 2.283 6.174 2.283l5.998-5.88 1.178-26.719-13.35.039Z"/>
  <path fill="#FF725E" d="M237.407 223.764s-4.509 5.94-5.442 28.649c0 0 12.845 2.843 13.08 2.019.236-.823-7.638-30.668-7.638-30.668Z"/>
  <path fill="#FF725E" d="m238.005 289.139 40.925.774-.631-7.174s-4.509-27.317-4.475-27.669l.706-1.745a17.96 17.96 0 0 0 1.528-6.854c.06-2.39-.344-4.764-1.183-6.946h19.87l-.842-18.78-20.853-3.577-7.756-.716s-13.67.834-13.964.873c-5.721.803-12.375 1.313-14.806 8.448-1.304 3.813-.067 9.537 2.053 15.447l5.047 18.123c2.019 9.968-1.203 9.497-2.97 19.524-.252 1.51-2.675 8.87-2.649 10.272Z"/>
  <path fill="#FAFAFA" d="M291.548 221.588c0 .137-11.668.255-26.078.255s-26.077-.118-26.077-.255 11.659-.265 26.077-.265c14.419 0 26.078.118 26.078.265Zm1.194 9.017c0 .147-12.971.255-28.979.255-16.009 0-28.98-.108-28.98-.255 0-.147 12.971-.254 28.98-.254 16.008 0 28.979.117 28.979.254Zm-54.737 10.272a11.592 11.592 0 0 1-4.829 0 11.592 11.592 0 0 1 4.829 0Zm37.913.314c0 .137-8.488.255-18.952.255-10.465 0-18.961-.118-18.961-.255s8.487-.255 18.961-.255c10.473 0 18.952.118 18.952.255Zm-.841 10.585c0 .138-7.621.255-17.018.255-9.396 0-17.009-.117-17.009-.255 0-.137 7.613-.255 17.009-.255 9.397 0 17.018.108 17.018.255Zm-.244 9.802c0 .137-6.906.255-15.419.255-8.513 0-15.42-.118-15.42-.255s6.907-.255 15.42-.255 15.419.118 15.419.255Zm1.354 7.958c0 .138-7.386.255-16.496.255s-16.496-.117-16.496-.255c0-.137 7.386-.255 16.496-.255s16.496.089 16.496.255Zm2.137 10.096c0 .137-8.412.254-18.767.254-10.356 0-18.768-.117-18.768-.254 0-.138 8.412-.255 18.768-.255 10.355 0 18.767.108 18.767.255Z"/>
  <path fill="#263238" d="M243.405 258.49a4.272 4.272 0 0 1-.345-.901c-.235-.706-.505-1.539-.841-2.51-.69-2.126-1.682-5.047-2.684-8.301-1.001-3.254-1.859-6.244-2.389-8.439a45.474 45.474 0 0 1-.58-2.607 5.038 5.038 0 0 1-.135-.981 39.217 39.217 0 0 1 1.01 3.49 278.157 278.157 0 0 0 2.524 8.36c1.034 3.254 1.943 6.195 2.565 8.351.311 1.078.547 1.96.698 2.568.102.311.161.638.177.97Z"/>
  <path fill="#000" d="M246.383 276.397c3.831-1.691 7.419-4.051 10.642-6.998 3.235-2.977 5.569-7.081 6.662-11.713.177-.872.202-2.019-.48-2.44a1.147 1.147 0 0 0-.814-.065c-.27.08-.512.257-.691.506a6.538 6.538 0 0 0-.842 1.686c-.797 2.016-2.05 3.741-3.625 4.989-1.8 1.421-3.929 2.136-5.948 3.068-2.018.931-4.054 2.175-5.266 4.273-1.211 2.097-1.32 5.253.278 6.959" opacity=".2"/>
  <path fill="#263238" d="M264.982 249.287v1.49a30.36 30.36 0 0 1-.504 4.008c-.845 4.385-2.566 8.476-5.023 11.94-2.457 3.464-5.581 6.204-9.118 7.996a20.24 20.24 0 0 1-3.281 1.333c-.395.128-.707.196-.917.245-.107.034-.217.05-.328.049.386-.2.785-.36 1.195-.48a25.449 25.449 0 0 0 3.205-1.48c3.448-1.847 6.495-4.577 8.913-7.986 2.417-3.41 4.144-7.41 5.051-11.705.28-1.291.493-2.6.639-3.92.026-.501.083-.999.168-1.49Z"/>
  <path fill="#FF725E" d="M296.654 174.875s-.092-.607-.177-1.803a22.255 22.255 0 0 1 .354-5.303c.64-3.357 1.948-6.492 3.819-9.153 1.87-2.66 4.25-4.773 6.948-6.166a18.475 18.475 0 0 1 5.83-1.872 19.367 19.367 0 0 1 6.662.166c5.02 1.045 9.633 3.897 13.191 8.155 1.999 2.315 3.699 4.957 5.047 7.841a34.79 34.79 0 0 1 2.835 9.899 34.178 34.178 0 0 1-.278 11.037 27.645 27.645 0 0 1-1.632 5.449 22.58 22.58 0 0 1-2.86 4.901c-2.418 3.014-5.499 5.197-8.908 6.312a28.452 28.452 0 0 1-10.894 1.304 37.762 37.762 0 0 1-11.23-2.333c-3.838-1.388-7.211-4.128-9.658-7.841-2.408-3.939-3.707-8.651-3.718-13.487a29.946 29.946 0 0 1 .842-7.272 32.816 32.816 0 0 1 2.616-6.803 32.8 32.8 0 0 1 4.096-5.88 28.598 28.598 0 0 1 5.308-4.538 22.559 22.559 0 0 1 6.259-2.706 19.508 19.508 0 0 1 6.73-.411c4.649.604 9.081 2.622 12.85 5.851s6.744 7.555 8.626 12.546c1.896 5.205 2.335 10.974 1.253 16.486-.555 2.791-1.585 5.424-3.028 7.743-1.487 2.32-3.409 4.214-5.619 5.538-2.226 1.318-4.642 2.145-7.125 2.44a21.93 21.93 0 0 1-7.496-.363c-5.018-1.113-9.644-3.926-13.299-8.086-1.843-2.097-3.343-4.568-4.425-7.292a21.823 21.823 0 0 1-1.464-8.821c.286-6.106 3.071-11.762 6.94-15.888 3.892-4.134 8.819-6.704 14.057-7.331a18.158 18.158 0 0 1 7.697.794c2.475.804 4.802 2.133 6.864 3.92 2.046 1.785 3.763 4.032 5.048 6.606a20.953 20.953 0 0 1 1.539 4.058c.219.696.337 1.421.496 2.137.16.715.236 1.45.278 2.185.505 5.87-.886 11.748-3.903 16.486-3.019 4.584-7.279 7.844-12.088 9.253-4.694 1.428-9.65 1.144-14.2-.814-8.951-3.783-15.874-13.085-17.363-23.611-.784-5.217.016-10.589 2.263-15.192 2.178-4.458 5.419-8.084 9.329-10.439 3.794-2.254 7.982-3.462 12.24-3.528 4.115-.099 8.209.73 12.054 2.44 7.571 3.333 13.754 10.007 16.471 18.201a32.132 32.132 0 0 1 1.491 12.332c-.307 4.189-1.424 8.243-3.266 11.858-1.754 3.357-4.227 6.127-7.175 8.037-2.793 1.794-5.87 2.911-9.043 3.283-5.82.558-11.655-.826-16.824-3.989-4.556-2.591-8.612-6.236-11.92-10.712-2.796-3.723-4.697-8.241-5.51-13.095-.552-3.928-.162-7.958 1.127-11.644.927-2.706 2.364-5.135 4.206-7.106a13.848 13.848 0 0 1 3.836-2.872c.967-.402 1.472-.578 1.472-.578l-.37.157c-.244.108-.614.255-1.085.47a14.266 14.266 0 0 0-3.794 2.941c-1.809 1.975-3.217 4.396-4.122 7.086-1.267 3.659-1.648 7.652-1.102 11.546.811 4.852 2.716 9.364 5.518 13.075 3.3 4.437 7.338 8.048 11.87 10.615 5.142 3.13 10.942 4.49 16.723 3.92 3.132-.376 6.168-1.483 8.925-3.254 2.902-1.887 5.332-4.624 7.05-7.939 1.812-3.567 2.909-7.566 3.209-11.697.3-4.131-.204-8.287-1.476-12.159-2.692-8.067-8.842-14.702-16.286-17.946-3.804-1.685-7.852-2.497-11.92-2.392-4.2.063-8.331 1.254-12.072 3.479-3.843 2.311-7.032 5.864-9.186 10.233-2.2 4.512-2.983 9.777-2.212 14.888 1.464 10.341 8.294 19.515 17.11 23.229 4.472 1.928 9.344 2.205 13.956.794 4.714-1.38 8.889-4.579 11.844-9.076 2.975-4.625 4.361-10.379 3.887-16.133-.042-.715-.185-1.421-.278-2.136a23.523 23.523 0 0 0-1.977-6.038c-1.272-2.517-2.962-4.713-4.971-6.459-4.1-3.577-9.207-5.222-14.301-4.607-5.14.604-9.978 3.112-13.804 7.155-3.794 4.019-6.52 9.596-6.797 15.535a21.322 21.322 0 0 0 1.421 8.596c1.064 2.663 2.531 5.08 4.333 7.135 3.595 4.09 8.144 6.855 13.08 7.949 2.425.542 4.905.664 7.361.363 2.433-.28 4.798-1.092 6.974-2.392 2.156-1.282 4.03-3.127 5.476-5.39 1.412-2.259 2.419-4.825 2.961-7.547 1.059-5.414.629-11.079-1.228-16.192-1.849-4.917-4.775-9.182-8.483-12.367-3.709-3.186-8.07-5.181-12.648-5.785a19.546 19.546 0 0 0-6.629.402 22.228 22.228 0 0 0-6.141 2.666 27.59 27.59 0 0 0-5.232 4.45 31.531 31.531 0 0 0-4.038 5.782 32.23 32.23 0 0 0-2.583 6.685 29.712 29.712 0 0 0-.841 7.145c.01 4.743 1.283 9.366 3.642 13.232 2.398 3.634 5.705 6.312 9.464 7.664a37.767 37.767 0 0 0 11.129 2.363 28.016 28.016 0 0 0 10.785-1.275c2.495-.762 4.821-2.139 6.82-4.038 2-1.899 3.627-4.275 4.772-6.969a27.362 27.362 0 0 0 1.615-5.371 34.04 34.04 0 0 0 .294-10.909c-.913-6.69-3.63-12.869-7.756-17.642-3.52-4.222-8.085-7.056-13.055-8.106a19.06 19.06 0 0 0-6.604-.176 18.246 18.246 0 0 0-5.787 1.833c-3.107 1.572-5.784 4.108-7.74 7.331-1.439 2.356-2.462 5.021-3.011 7.841a23.071 23.071 0 0 0-.396 5.283c0 .598.085 1.049.101 1.353.017.304.034.47.034.47Z"/>
  <path fill="#FF725E" d="M329.756 169.798c0 .127-5.477 2.264-12.307 4.763-6.831 2.5-12.408 4.421-12.442 4.284-.033-.138 5.477-2.264 12.307-4.764 6.831-2.499 12.366-4.42 12.442-4.283Zm1.522 4.666c.042.127-5.098 2.313-11.474 4.9-6.376 2.588-11.567 4.519-11.609 4.381-.042-.137 5.098-2.313 11.474-4.9 6.377-2.588 11.567-4.528 11.609-4.381Zm-9.413 9.566c.135.215-2.523 1.44-5.737 2.773a90.016 90.016 0 0 1-4.206 1.627c-.57.262-1.167.44-1.775.53a7.342 7.342 0 0 1 1.683-.873c1.051-.47 2.523-1.097 4.13-1.764a186.459 186.459 0 0 1 4.164-1.666c1.068-.412 1.783-.647 1.741-.627Z"/>
  <path fill="#FFBE9D" d="M326.61 188.646s-3.853-2.078-4.038-.98c-.185 1.098.075 1.539.841 1.813.765.274 2.852 1.098 2.852 1.098l.345-1.931Z"/>
  <path fill="#EB996E" d="M326.391 190.695s-3.853-2.078-4.038-.981c-.185 1.098.067 1.529.841 1.814.774.284 2.852 1.097 2.852 1.097l.345-1.93Z"/>
  <path fill="#FFBE9D" d="m317.533 195.281-14.62 22.308c-2.086 3.597-5.325 5.391-7.512 5.46l-1.371.137.681 15.202 5.771-.765c1.798-.239 3.523-.964 5.037-2.118 1.515-1.154 2.777-2.704 3.686-4.527l14.864-29.933a55.198 55.198 0 0 0 2.608-5.979c.841-2.588-.067-6.459-.067-6.459l-5.889 4.332v-4.675s-.631-.255-1.859 1.146c-1.06 1.245-1.329 5.871-1.329 5.871Z"/>
  <path fill="#455A64" d="m320.629 186.284.075 16.456c.001.182.034.362.097.528.062.167.154.317.268.441.114.124.249.219.396.28a.994.994 0 0 0 .459.074c.289-.024.559-.176.755-.423.197-.247.306-.572.305-.91v-16.662l-1.346-2.548-1.009 2.764Z"/>
  <path fill="#263238" d="m321.621 183.569-.37.99.867-.049-.497-.941Zm1.346 2.539a1.713 1.713 0 0 1-1.169.431 1.894 1.894 0 0 1-1.212-.245c0-.069.547.088 1.203.049.657-.039 1.153-.294 1.178-.235Z"/>
  <path fill="#263238" d="M321.764 204.063a4.751 4.751 0 0 1-.042-.695v-1.892c0-1.774 0-3.921-.042-6.244-.042-2.322 0-4.459 0-6.233v-1.892a4.044 4.044 0 0 1 0-.696c.014.232.014.464 0 .696v16.261c.039.23.067.462.084.695Z"/>
  <path fill="#FF725E" d="M124.5 383.232c6.578 2.675 15.142.284 20.803-4.509 5.661-4.793 9.682-11.654 13.274-18.623 1.531-2.94 3.029-6.067 3.517-9.487.488-3.421-.236-7.273-2.524-9.508-3.542-3.469-8.967-1.705-12.98.981-6.268 4.259-11.554 10.229-15.402 17.397-3.849 7.168-6.144 15.318-6.688 23.749Zm7.049 18.328c3.954 6.077 10.742 8.821 17.287 9.135 6.545.313 12.997-1.745 19.104-4.479 2.221-.981 4.643-2.353 5.409-4.97a7.338 7.338 0 0 0 .059-3.112 6.745 6.745 0 0 0-1.22-2.768c-1.206-1.564-2.718-2.764-4.408-3.5-6.015-2.989-12.912-3.126-19.238-1.215-6.326 1.911-11.862 6.185-16.993 10.899m-7.167-51.212c5.451.128 9.573-5.43 12.046-11.095 3.405-7.909 4.532-16.886 3.213-25.601-.504-3.244-1.556-6.743-4.046-8.311-2.49-1.569-5.829-.539-7.949 1.725-2.12 2.264-3.289 5.479-4.139 8.684-2.927 11.026-2.297 23.699.841 34.647m-17.867 35.079c9.253-18.426 10.843-40.979 5.35-61.366-.892-3.313-2.566-7.096-5.535-7.312-3.289-.245-5.35 4.029-6.259 7.714-3.188 12.957-2.524 26.709-1.809 40.185.438 8.283 2.877 15.359 8.253 20.809m-9.666 7.537c-1.727-6.315-4.65-12.097-8.552-16.92-3.902-4.823-8.684-8.564-13.992-10.945-2.473-1.078-5.603-1.696-7.445.5-1.842 2.195-1.211 5.802-.092 8.468 1.867 4.352 4.904 7.841 7.932 11.203 2.75 3.058 5.611 6.116 9.094 7.89 3.482 1.774 9.875 2.225 13.055-.186"/>
  <path fill="#263238" d="M154.43 345.702a.771.771 0 0 1-.16.167l-.505.451-1.951 1.696-1.405 1.215c-.513.461-1.043.98-1.624 1.539-1.152 1.117-2.523 2.323-3.878 3.842l-2.187 2.323c-.765.813-1.489 1.725-2.279 2.636-1.599 1.784-3.147 3.921-4.812 6.038-7.09 9.554-12.834 20.359-17.018 32.011-.917 2.705-1.825 5.254-2.524 7.723-.344 1.226-.723 2.402-1.001 3.549-.277 1.146-.546 2.264-.841 3.322-.547 2.107-.841 4.058-1.211 5.754-.16.852-.328 1.646-.454 2.381l-.303 2.01a383.5 383.5 0 0 0-.429 2.793l-.126.725a1.435 1.435 0 0 1-.059.245c-.01-.084-.01-.17 0-.255 0-.196.042-.431.075-.735.084-.676.202-1.617.354-2.803.075-.608.168-1.294.26-2.029.093-.735.278-1.529.421-2.391.328-1.706.623-3.676 1.161-5.793l.774-3.332c.277-1.167.648-2.343.984-3.578.648-2.479 1.556-5.047 2.456-7.762a138.728 138.728 0 0 1 7.403-16.888 128.654 128.654 0 0 1 9.649-15.251c1.682-2.166 3.247-4.254 4.862-6.038.841-.901 1.539-1.813 2.305-2.617l2.221-2.303c1.379-1.509 2.759-2.695 3.928-3.803.589-.539 1.127-1.058 1.641-1.499l1.438-1.186 2.002-1.618.53-.411c.236-.088.295-.137.303-.128Z"/>
  <path fill="#263238" d="M166.737 396.777a2.545 2.545 0 0 1-.639-.118c-.421-.088-1.018-.274-1.809-.431-9.594-2.132-19.513-.937-28.53 3.436-9.016 4.373-16.733 11.732-22.195 21.165-.463.765-.774 1.392-1.01 1.794-.108.22-.235.427-.378.618.087-.231.188-.454.303-.667.21-.421.504-1.068.942-1.852a52.933 52.933 0 0 1 4.071-6.361c4.916-6.668 11.105-11.901 18.071-15.278 6.966-3.377 14.514-4.805 22.038-4.168a38.59 38.59 0 0 1 6.73 1.117c.782.186 1.388.402 1.792.52.208.062.413.137.614.225Zm-34.322-84.115c.008.095.008.19 0 .284-.042.216-.092.49-.151.833-.143.755-.353 1.824-.606 3.166-.538 2.754-1.354 6.724-2.38 11.634-2.044 9.802-5.048 23.318-8.118 38.284a1018.3 1018.3 0 0 0-4.139 21.161 543.73 543.73 0 0 0-2.936 17.388c-.395 2.48-.698 4.734-.984 6.714a296.99 296.99 0 0 0-.698 5.077c-.177 1.402-.32 2.441-.421 3.205l-.126.843c-.01.094-.03.186-.059.274a1.497 1.497 0 0 1 0-.284c0-.216.042-.5.076-.843.084-.774.202-1.852.345-3.224.143-1.373.353-3.117.622-5.097.27-1.98.547-4.234.926-6.724.706-4.979 1.682-10.889 2.843-17.427 1.161-6.537 2.566-13.721 4.105-21.18 3.096-14.977 6.124-28.473 8.244-38.225 1.06-4.901 1.91-8.822 2.524-11.595.294-1.333.521-2.392.689-3.147.076-.333.143-.597.194-.813.004-.104.021-.206.05-.304Zm-21.333 107.364s0-.069-.059-.226c-.058-.156-.084-.392-.134-.666-.107-.654-.258-1.506-.454-2.558-.396-2.235-.917-5.469-1.515-9.478-1.194-8.018-2.599-19.152-3.474-31.531a359.734 359.734 0 0 1-.757-17.486c-.101-5.38 0-10.232.109-14.3 0-2.029.16-3.871.236-5.488.076-1.618.168-3 .252-4.127.084-1.127.16-1.96.211-2.617l.067-.676a1.058 1.058 0 0 1 0-.225c.009.078.009.157 0 .235v.676c0 .647-.067 1.519-.118 2.617-.05 1.098-.134 2.519-.185 4.136-.05 1.617-.151 3.45-.168 5.479-.11 4.068-.118 8.91 0 14.281s.37 11.271.791 17.456c.841 12.359 2.229 23.523 3.364 31.511a756.55 756.55 0 0 0 1.38 9.498c.151 1.087.278 1.96.37 2.587l.093.667c.001.078-.002.157-.009.235Z"/>
  <path fill="#263238" d="M111.764 422.368a6.592 6.592 0 0 1-.244-.637l-.606-1.852-.437-1.343c-.185-.48-.387-.98-.598-1.558-.21-.579-.446-1.157-.681-1.784-.236-.628-.555-1.274-.841-1.961l-.942-2.146c-.371-.725-.741-1.48-1.136-2.264-.74-1.588-1.682-3.166-2.641-4.901a114.149 114.149 0 0 0-7-10.428 120.281 120.281 0 0 0-8.033-9.361c-1.33-1.313-2.524-2.626-3.794-3.734l-1.758-1.627-1.682-1.441a65.477 65.477 0 0 0-2.92-2.391c-.874-.686-1.623-1.274-2.254-1.716l-1.438-1.068a2.564 2.564 0 0 1-.488-.402c.182.091.36.196.53.314l1.489.98c.647.421 1.413.98 2.296 1.656.883.677 1.893 1.422 2.961 2.343l1.683 1.411 1.783 1.618c1.253 1.088 2.524 2.391 3.836 3.704a114.088 114.088 0 0 1 8.093 9.38 109.037 109.037 0 0 1 7.007 10.498c.925 1.734 1.884 3.332 2.624 4.9.376.797.746 1.562 1.111 2.294l.925 2.176c.286.696.589 1.342.841 1.96.253.617.446 1.245.656 1.813l.564 1.578c.143.49.278.98.404 1.363l.53 1.891c.077.237.131.484.16.735Zm39.217-55.299c-.975.13-1.955.199-2.936.206a47.628 47.628 0 0 0-7.015.98c-2.315.52-4.6 1.211-6.839 2.068-1.683.667-2.76 1.147-2.793 1.078.211-.189.447-.337.698-.441.463-.264 1.144-.597 1.994-.98a38.162 38.162 0 0 1 6.864-2.244 35.979 35.979 0 0 1 7.083-.843h2.153c.269.019.535.079.791.176Zm7.007 39.901c-1.911-4.974-5.179-9.074-9.295-11.663.674.2 1.314.531 1.893.98 2.922 1.949 5.268 4.885 6.729 8.419.331.706.558 1.471.673 2.264Zm-23.899-79.371c.085.108-1.623 2.088-3.491 4.764-1.867 2.675-3.196 5.018-3.306 4.9a23.228 23.228 0 0 1 2.97-5.263 20.696 20.696 0 0 1 3.827-4.401Zm-5.619-11.291c.43 1.379.712 2.814.842 4.273.283 1.427.422 2.888.412 4.352a44.517 44.517 0 0 1-1.262-8.625h.008Zm-17.379 35.442a57.16 57.16 0 0 1-2.717 6.674 56.252 56.252 0 0 1-3.113 6.43 58.383 58.383 0 0 1 2.717-6.665 58.27 58.27 0 0 1 3.113-6.439Zm-10.347-12.026a30.891 30.891 0 0 1 2.305 4.822 31.902 31.902 0 0 1 1.909 5.048 32.941 32.941 0 0 1-2.305-4.823 32.99 32.99 0 0 1-1.909-5.047Z"/>
  <path fill="#263238" d="M85.535 380.879c0 .147-1.868-.274-4.206-.46-2.339-.187-4.206-.079-4.206-.236a10.52 10.52 0 0 1 4.206-.274c1.44.029 2.864.357 4.206.97Zm10.363 36.393 5.174 31.697c.165 1.016.629 1.932 1.313 2.591.683.658 1.543 1.018 2.43 1.016h15.31c.904.002 1.778-.37 2.467-1.051.689-.681 1.148-1.625 1.294-2.664l4.5-31.589H95.898Z"/>
  <path fill="#455A64" d="M97.606 427.573h29.224l1.556-10.301H95.924l1.682 10.301Z"/>
  <path fill="#FAFAFA" d="m97.606 427.573.614 3.754h28.164l.446-3.754H97.606Z"/>
</svg>
